%FSTAX23Y23*%
%MOIN*%
%SFA1B1*%

%IPPOS*%
%ADD21C,0.007870*%
%ADD22C,0.012000*%
%ADD23C,0.010000*%
%ADD24C,0.008000*%
%ADD36C,0.005000*%
%LNtlc5940controlboard-1*%
%LPD*%
G54D21*
X02243Y01326D02*
D01*
X02241Y01325*
X0224*
X02238*
X02236*
X02235Y01324*
X02233Y01323*
X02231*
X0223Y01322*
X02228Y01321*
X02227Y0132*
X02226Y01318*
X02225Y01317*
X02223Y01316*
X02222Y01314*
X02221Y01313*
Y01311*
X0222Y0131*
X02219Y01308*
Y01307*
X02218Y01305*
Y01303*
Y01301*
Y013*
Y01298*
Y01296*
X02219Y01294*
Y01293*
X0222Y01291*
X02221Y0129*
Y01288*
X02222Y01287*
X02223Y01285*
X02225Y01284*
X02226Y01283*
X02227Y01281*
X02228Y0128*
X0223Y01279*
X02231Y01278*
X02233*
X02235Y01277*
X02236Y01276*
X02238*
X0224*
X02241*
X02243*
G54D36*
X0Y0D02*
X1D01*
Y05*
X0*
Y0*
G54D21*
X00863Y0373D02*
D01*
X00865*
X00866*
X00868*
X0087*
X00871Y03731*
X00873Y03732*
X00875*
X00876Y03733*
X00878Y03734*
X00879Y03735*
X0088Y03737*
X00881Y03738*
X00883Y03739*
X00884Y03741*
X00885Y03742*
Y03744*
X00886Y03745*
X00887Y03747*
Y03748*
X00888Y0375*
Y03752*
Y03754*
Y03755*
Y03757*
Y03759*
X00887Y03761*
Y03762*
X00886Y03764*
X00885Y03765*
Y03767*
X00884Y03768*
X00883Y0377*
X00881Y03771*
X0088Y03772*
X00879Y03774*
X00878Y03775*
X00876Y03776*
X00875Y03777*
X00873*
X00871Y03778*
X0087Y03779*
X00868*
X00866*
X00865*
X00863Y0378*
G54D22*
X04636Y01776D02*
Y03375D01*
X04436Y01776D02*
X04636D01*
X04436D02*
Y03375D01*
X04636*
X02243Y01326D02*
Y01405D01*
Y01196D02*
Y01276D01*
X00818Y01196D02*
Y01405D01*
X02243*
X00818Y01196D02*
X02243D01*
X03563Y03624D02*
Y03825D01*
X03688Y03624D02*
Y03825D01*
X03563D02*
X03688D01*
X03563Y03624D02*
X03688D01*
X03383D02*
Y03825D01*
X03508Y03624D02*
Y03825D01*
X03383D02*
X03508D01*
X03383Y03624D02*
X03508D01*
X03183D02*
Y03825D01*
X03308Y03624D02*
Y03825D01*
X03183D02*
X03308D01*
X03183Y03624D02*
X03308D01*
X02983D02*
Y03825D01*
X03108Y03624D02*
Y03825D01*
X02983D02*
X03108D01*
X02983Y03624D02*
X03108D01*
X02783D02*
Y03825D01*
X02908Y03624D02*
Y03825D01*
X02783D02*
X02908D01*
X02783Y03624D02*
X02908D01*
X03608Y01385D02*
Y01586D01*
X03483Y01385D02*
Y01586D01*
Y01385D02*
X03608D01*
X03483Y01586D02*
X03608D01*
X03408Y01385D02*
Y01586D01*
X03283Y01385D02*
Y01586D01*
Y01385D02*
X03408D01*
X03283Y01586D02*
X03408D01*
X02808Y01385D02*
Y01586D01*
X02683Y01385D02*
Y01586D01*
Y01385D02*
X02808D01*
X02683Y01586D02*
X02808D01*
X03008Y01385D02*
Y01586D01*
X02883Y01385D02*
Y01586D01*
Y01385D02*
X03008D01*
X02883Y01586D02*
X03008D01*
X03208Y01385D02*
Y01586D01*
X03083Y01385D02*
Y01586D01*
Y01385D02*
X03208D01*
X03083Y01586D02*
X03208D01*
X00536Y00646D02*
Y04365D01*
X04831*
Y00646D02*
Y04365D01*
X00536Y00646D02*
X04831D01*
X01246Y02926D02*
Y02935D01*
Y03135D02*
Y03144D01*
X01216Y02935D02*
X01246D01*
X01216D02*
Y03135D01*
X01276*
Y02935D02*
Y03135D01*
X01246Y02935D02*
X01276D01*
X01046Y02926D02*
Y02935D01*
Y03135D02*
Y03144D01*
X01016Y02935D02*
X01046D01*
X01016D02*
Y03135D01*
X01076*
Y02935D02*
Y03135D01*
X01046Y02935D02*
X01076D01*
X00946Y02926D02*
Y02935D01*
Y03135D02*
Y03144D01*
X00916Y02935D02*
X00946D01*
X00916D02*
Y03135D01*
X00976*
Y02935D02*
Y03135D01*
X00946Y02935D02*
X00976D01*
X00846Y02926D02*
Y02935D01*
Y03135D02*
Y03144D01*
X00816Y02935D02*
X00846D01*
X00816D02*
Y03135D01*
X00876*
Y02935D02*
Y03135D01*
X00846Y02935D02*
X00876D01*
X02746Y02226D02*
Y02235D01*
Y02017D02*
Y02026D01*
Y02226D02*
X02776D01*
Y02026D02*
Y02226D01*
X02716Y02026D02*
X02776D01*
X02716D02*
Y02226D01*
X02746*
X02946D02*
Y02235D01*
Y02017D02*
Y02026D01*
Y02226D02*
X02976D01*
Y02026D02*
Y02226D01*
X02916Y02026D02*
X02976D01*
X02916D02*
Y02226D01*
X02946*
X03146D02*
Y02235D01*
Y02017D02*
Y02026D01*
Y02226D02*
X03176D01*
Y02026D02*
Y02226D01*
X03116Y02026D02*
X03176D01*
X03116D02*
Y02226D01*
X03146*
X03346D02*
Y02235D01*
Y02017D02*
Y02026D01*
Y02226D02*
X03376D01*
Y02026D02*
Y02226D01*
X03316Y02026D02*
X03376D01*
X03316D02*
Y02226D01*
X03346*
X03546D02*
Y02235D01*
Y02017D02*
Y02026D01*
Y02226D02*
X03576D01*
Y02026D02*
Y02226D01*
X03516Y02026D02*
X03576D01*
X03516D02*
Y02226D01*
X03546*
X03626Y02936D02*
Y02945D01*
Y03145D02*
Y03154D01*
X03596Y02945D02*
X03626D01*
X03596D02*
Y03145D01*
X03656*
Y02945D02*
Y03145D01*
X03626Y02945D02*
X03656D01*
X03446Y02936D02*
Y02945D01*
Y03145D02*
Y03154D01*
X03416Y02945D02*
X03446D01*
X03416D02*
Y03145D01*
X03476*
Y02945D02*
Y03145D01*
X03446Y02945D02*
X03476D01*
X03246Y02936D02*
Y02945D01*
Y03145D02*
Y03154D01*
X03216Y02945D02*
X03246D01*
X03216D02*
Y03145D01*
X03276*
Y02945D02*
Y03145D01*
X03246Y02945D02*
X03276D01*
X01417Y00846D02*
X01426D01*
X01626D02*
X01635D01*
X01426D02*
Y00876D01*
X01626*
Y00816D02*
Y00876D01*
X01426Y00816D02*
X01626D01*
X01426D02*
Y00846D01*
X03046Y02936D02*
Y02945D01*
Y03145D02*
Y03154D01*
X03016Y02945D02*
X03046D01*
X03016D02*
Y03145D01*
X03076*
Y02945D02*
Y03145D01*
X03046Y02945D02*
X03076D01*
X02846Y02936D02*
Y02945D01*
Y03145D02*
Y03154D01*
X02816Y02945D02*
X02846D01*
X02816D02*
Y03145D01*
X02876*
Y02945D02*
Y03145D01*
X02846Y02945D02*
X02876D01*
X00696Y0255D02*
X03701D01*
X00696Y0275D02*
X03701D01*
X00696Y0255D02*
Y0275D01*
X03701Y0255D02*
Y0275D01*
X00863Y0365D02*
Y0373D01*
Y0378D02*
Y03859D01*
X02288Y0365D02*
Y03859D01*
X00863Y0365D02*
X02288D01*
X00863Y03859D02*
X02288D01*
X01766Y04165D02*
X01775D01*
X01557D02*
X01566D01*
X01766Y04135D02*
Y04165D01*
X01566Y04135D02*
X01766D01*
X01566D02*
Y04195D01*
X01766*
Y04165D02*
Y04195D01*
X00746Y02201D02*
Y0221D01*
Y01992D02*
Y02001D01*
Y02201D02*
X00776D01*
Y02001D02*
Y02201D01*
X00716Y02001D02*
X00776D01*
X00716D02*
Y02201D01*
X00746*
X00846D02*
Y0221D01*
Y01992D02*
Y02001D01*
Y02201D02*
X00876D01*
Y02001D02*
Y02201D01*
X00816Y02001D02*
X00876D01*
X00816D02*
Y02201D01*
X00846*
X00946D02*
Y0221D01*
Y01992D02*
Y02001D01*
Y02201D02*
X00976D01*
Y02001D02*
Y02201D01*
X00916Y02001D02*
X00976D01*
X00916D02*
Y02201D01*
X00946*
X01146D02*
Y0221D01*
Y01992D02*
Y02001D01*
Y02201D02*
X01176D01*
Y02001D02*
Y02201D01*
X01116Y02001D02*
X01176D01*
X01116D02*
Y02201D01*
X01146*
X01246D02*
Y0221D01*
Y01992D02*
Y02001D01*
Y02201D02*
X01276D01*
Y02001D02*
Y02201D01*
X01216Y02001D02*
X01276D01*
X01216D02*
Y02201D01*
X01246*
X01346D02*
Y0221D01*
Y01992D02*
Y02001D01*
Y02201D02*
X01376D01*
Y02001D02*
Y02201D01*
X01316Y02001D02*
X01376D01*
X01316D02*
Y02201D01*
X01346*
X01546D02*
Y0221D01*
Y01992D02*
Y02001D01*
Y02201D02*
X01576D01*
Y02001D02*
Y02201D01*
X01516Y02001D02*
X01576D01*
X01516D02*
Y02201D01*
X01546*
X01646D02*
Y0221D01*
Y01992D02*
Y02001D01*
Y02201D02*
X01676D01*
Y02001D02*
Y02201D01*
X01616Y02001D02*
X01676D01*
X01616D02*
Y02201D01*
X01646*
X01746D02*
Y0221D01*
Y01992D02*
Y02001D01*
Y02201D02*
X01776D01*
Y02001D02*
Y02201D01*
X01716Y02001D02*
X01776D01*
X01716D02*
Y02201D01*
X01746*
X01946Y02221D02*
Y0223D01*
Y02012D02*
Y02021D01*
Y02221D02*
X01976D01*
Y02021D02*
Y02221D01*
X01916Y02021D02*
X01976D01*
X01916D02*
Y02221D01*
X01946*
X02046D02*
Y0223D01*
Y02012D02*
Y02021D01*
Y02221D02*
X02076D01*
Y02021D02*
Y02221D01*
X02016Y02021D02*
X02076D01*
X02016D02*
Y02221D01*
X02046*
X02146D02*
Y0223D01*
Y02012D02*
Y02021D01*
Y02221D02*
X02176D01*
Y02021D02*
Y02221D01*
X02116Y02021D02*
X02176D01*
X02116D02*
Y02221D01*
X02146*
X02351Y02216D02*
Y02225D01*
Y02007D02*
Y02016D01*
Y02216D02*
X02381D01*
Y02016D02*
Y02216D01*
X02321Y02016D02*
X02381D01*
X02321D02*
Y02216D01*
X02351*
X02451D02*
Y02225D01*
Y02007D02*
Y02016D01*
Y02216D02*
X02481D01*
Y02016D02*
Y02216D01*
X02421Y02016D02*
X02481D01*
X02421D02*
Y02216D01*
X02451*
X02546Y02221D02*
Y0223D01*
Y02012D02*
Y02021D01*
Y02221D02*
X02576D01*
Y02021D02*
Y02221D01*
X02516Y02021D02*
X02576D01*
X02516D02*
Y02221D01*
X02546*
X02646Y02926D02*
Y02935D01*
Y03135D02*
Y03144D01*
X02616Y02935D02*
X02646D01*
X02616D02*
Y03135D01*
X02676*
Y02935D02*
Y03135D01*
X02646Y02935D02*
X02676D01*
X01346Y02926D02*
Y02935D01*
Y03135D02*
Y03144D01*
X01316Y02935D02*
X01346D01*
X01316D02*
Y03135D01*
X01376*
Y02935D02*
Y03135D01*
X01346Y02935D02*
X01376D01*
X01446Y02926D02*
Y02935D01*
Y03135D02*
Y03144D01*
X01416Y02935D02*
X01446D01*
X01416D02*
Y03135D01*
X01476*
Y02935D02*
Y03135D01*
X01446Y02935D02*
X01476D01*
X01646Y02926D02*
Y02935D01*
Y03135D02*
Y03144D01*
X01616Y02935D02*
X01646D01*
X01616D02*
Y03135D01*
X01676*
Y02935D02*
Y03135D01*
X01646Y02935D02*
X01676D01*
X01746Y02926D02*
Y02935D01*
Y03135D02*
Y03144D01*
X01716Y02935D02*
X01746D01*
X01716D02*
Y03135D01*
X01776*
Y02935D02*
Y03135D01*
X01746Y02935D02*
X01776D01*
X01846Y02926D02*
Y02935D01*
Y03135D02*
Y03144D01*
X01816Y02935D02*
X01846D01*
X01816D02*
Y03135D01*
X01876*
Y02935D02*
Y03135D01*
X01846Y02935D02*
X01876D01*
X02046Y02926D02*
Y02935D01*
Y03135D02*
Y03144D01*
X02016Y02935D02*
X02046D01*
X02016D02*
Y03135D01*
X02076*
Y02935D02*
Y03135D01*
X02046Y02935D02*
X02076D01*
X02146Y02926D02*
Y02935D01*
Y03135D02*
Y03144D01*
X02116Y02935D02*
X02146D01*
X02116D02*
Y03135D01*
X02176*
Y02935D02*
Y03135D01*
X02146Y02935D02*
X02176D01*
X02246Y02926D02*
Y02935D01*
Y03135D02*
Y03144D01*
X02216Y02935D02*
X02246D01*
X02216D02*
Y03135D01*
X02276*
Y02935D02*
Y03135D01*
X02246Y02935D02*
X02276D01*
X02446Y02926D02*
Y02935D01*
Y03135D02*
Y03144D01*
X02416Y02935D02*
X02446D01*
X02416D02*
Y03135D01*
X02476*
Y02935D02*
Y03135D01*
X02446Y02935D02*
X02476D01*
X02546Y02926D02*
Y02935D01*
Y03135D02*
Y03144D01*
X02516Y02935D02*
X02546D01*
X02516D02*
Y03135D01*
X02576*
Y02935D02*
Y03135D01*
X02546Y02935D02*
X02576D01*
X04056Y00881D02*
X04061Y00876D01*
X04161*
X04236Y00951*
Y00876D02*
Y00951D01*
Y00876D02*
X04261Y00851D01*
Y00751D02*
Y00851D01*
X04241Y00731D02*
X04261Y00751D01*
X04011Y00731D02*
X04241D01*
X03986D02*
X04011D01*
X03981D02*
X03986D01*
X03961Y00751D02*
X03981Y00731D01*
X03961Y00751D02*
Y00851D01*
X03986Y00876*
X04026Y00866D02*
X04046D01*
X04081Y00831*
X04086Y00791D02*
X04136D01*
Y00781D02*
Y00791D01*
X04111Y00756D02*
X04136Y00781D01*
X04086D02*
X04111Y00756D01*
X04086Y00781D02*
Y00791D01*
X04036Y00816D02*
Y00841D01*
X04186Y00816D02*
Y00841D01*
X04141Y00831D02*
X04176Y00866D01*
X04196*
X04261Y00826D02*
X04311D01*
X04261Y00801D02*
X04311D01*
X03911Y00826D02*
X03961D01*
X03911Y00801D02*
X03961D01*
X03986Y00951D02*
X04056Y00881D01*
X03986Y00876D02*
Y00951D01*
G54D23*
X04336Y03569D02*
Y0351D01*
Y03539*
X04375*
Y03569*
Y0351*
X04395Y03569D02*
Y0351D01*
X04425*
X04435Y0352*
Y03559*
X04425Y03569*
X04395*
X04455Y0351D02*
Y03569D01*
X04485*
X04495Y03559*
Y03539*
X04485Y03529*
X04455*
X04475D02*
X04495Y0351D01*
X04515Y035D02*
X04555D01*
X04575Y0351D02*
Y03549D01*
X04595Y03569*
X04615Y03549*
Y0351*
Y03539*
X04575*
X04635Y0351D02*
Y03569D01*
X04665*
X04675Y03559*
Y03539*
X04665Y03529*
X04635*
X04655D02*
X04675Y0351D01*
X04695D02*
Y03569D01*
X04715Y03549*
X04735Y03569*
Y0351*
X00824Y01584D02*
X00863D01*
X00843*
Y01525*
X00883Y01584D02*
Y01525D01*
X00923*
X00983Y01574D02*
X00973Y01584D01*
X00953*
X00943Y01574*
Y01535*
X00953Y01525*
X00973*
X00983Y01535*
X01043Y01584D02*
X01003D01*
Y01554*
X01023Y01564*
X01033*
X01043Y01554*
Y01535*
X01033Y01525*
X01013*
X01003Y01535*
X01063D02*
X01073Y01525D01*
X01093*
X01103Y01535*
Y01574*
X01093Y01584*
X01073*
X01063Y01574*
Y01564*
X01073Y01554*
X01103*
X01153Y01525D02*
Y01584D01*
X01123Y01554*
X01163*
X01183Y01574D02*
X01193Y01584D01*
X01213*
X01223Y01574*
Y01535*
X01213Y01525*
X01193*
X01183Y01535*
Y01574*
X01243Y01515D02*
X01283D01*
X01303Y01574D02*
X01313Y01584D01*
X01333*
X01343Y01574*
Y01535*
X01333Y01525*
X01313*
X01303Y01535*
Y01574*
X03322Y02338D02*
Y02397D01*
X03351*
X03361Y02387*
Y02367*
X03351Y02357*
X03322*
X03341D02*
X03361Y02338D01*
X03421Y02397D02*
X03401Y02387D01*
X03381Y02367*
Y02348*
X03391Y02338*
X03411*
X03421Y02348*
Y02357*
X03411Y02367*
X03381*
X02835Y03899D02*
X02825Y03909D01*
X02806*
X02796Y03899*
Y0386*
X02806Y0385*
X02825*
X02835Y0386*
X02855Y03899D02*
X02865Y03909D01*
X02885*
X02895Y03899*
Y0386*
X02885Y0385*
X02865*
X02855Y0386*
Y03899*
X0304D02*
X0303Y03909D01*
X03011*
X03001Y03899*
Y0386*
X03011Y0385*
X0303*
X0304Y0386*
X0306Y0385D02*
X0308D01*
X0307*
Y03909*
X0306Y03899*
X03235Y03904D02*
X03225Y03914D01*
X03206*
X03196Y03904*
Y03865*
X03206Y03855*
X03225*
X03235Y03865*
X03295Y03855D02*
X03255D01*
X03295Y03894*
Y03904*
X03285Y03914*
X03265*
X03255Y03904*
X0344Y03909D02*
X0343Y03919D01*
X03411*
X03401Y03909*
Y0387*
X03411Y0386*
X0343*
X0344Y0387*
X0346Y03909D02*
X0347Y03919D01*
X0349*
X035Y03909*
Y03899*
X0349Y03889*
X0348*
X0349*
X035Y03879*
Y0387*
X0349Y0386*
X0347*
X0346Y0387*
X03615Y03914D02*
X03605Y03924D01*
X03586*
X03576Y03914*
Y03875*
X03586Y03865*
X03605*
X03615Y03875*
X03665Y03865D02*
Y03924D01*
X03635Y03894*
X03675*
X03535Y01335D02*
X03525Y01345D01*
X03506*
X03496Y01335*
Y01296*
X03506Y01286*
X03525*
X03535Y01296*
X03595Y01345D02*
X03555D01*
Y01315*
X03575Y01325*
X03585*
X03595Y01315*
Y01296*
X03585Y01286*
X03565*
X03555Y01296*
X03325Y01335D02*
X03315Y01345D01*
X03296*
X03286Y01335*
Y01296*
X03296Y01286*
X03315*
X03325Y01296*
X03385Y01345D02*
X03365Y01335D01*
X03345Y01315*
Y01296*
X03355Y01286*
X03375*
X03385Y01296*
Y01305*
X03375Y01315*
X03345*
X03135Y01325D02*
X03125Y01335D01*
X03106*
X03096Y01325*
Y01286*
X03106Y01276*
X03125*
X03135Y01286*
X03155Y01335D02*
X03195D01*
Y01325*
X03155Y01286*
Y01276*
X02935Y0133D02*
X02925Y0134D01*
X02906*
X02896Y0133*
Y01291*
X02906Y01281*
X02925*
X02935Y01291*
X02955Y0133D02*
X02965Y0134D01*
X02985*
X02995Y0133*
Y0132*
X02985Y0131*
X02995Y013*
Y01291*
X02985Y01281*
X02965*
X02955Y01291*
Y013*
X02965Y0131*
X02955Y0132*
Y0133*
X02965Y0131D02*
X02985D01*
X0273Y01325D02*
X0272Y01335D01*
X02701*
X02691Y01325*
Y01286*
X02701Y01276*
X0272*
X0273Y01286*
X0275D02*
X0276Y01276D01*
X0278*
X0279Y01286*
Y01325*
X0278Y01335*
X0276*
X0275Y01325*
Y01315*
X0276Y01305*
X0279*
X00616Y02889D02*
Y0283D01*
Y02859*
X00655*
Y02889*
Y0283*
X00675Y02889D02*
Y0283D01*
X00705*
X00715Y0284*
Y02879*
X00705Y02889*
X00675*
X00735Y0283D02*
Y02889D01*
X00765*
X00775Y02879*
Y02859*
X00765Y02849*
X00735*
X00755D02*
X00775Y0283D01*
X00795Y0282D02*
X00835D01*
X00855Y02889D02*
Y0283D01*
X00895*
X00955Y02889D02*
X00915D01*
Y0283*
X00955*
X00915Y02859D02*
X00935D01*
X00975Y02889D02*
Y0283D01*
X01005*
X01015Y0284*
Y02879*
X01005Y02889*
X00975*
X01035Y0282D02*
X01075D01*
X01095Y0283D02*
Y02889D01*
X01125*
X01135Y02879*
Y02859*
X01125Y02849*
X01095*
X01115D02*
X01135Y0283D01*
X01195Y02889D02*
X01155D01*
Y0283*
X01195*
X01155Y02859D02*
X01175D01*
X01255Y02879D02*
X01245Y02889D01*
X01225*
X01215Y02879*
Y02869*
X01225Y02859*
X01245*
X01255Y02849*
Y0284*
X01245Y0283*
X01225*
X01215Y0284*
X02822Y03257D02*
Y03316D01*
X02851*
X02861Y03306*
Y03286*
X02851Y03276*
X02822*
X02841D02*
X02861Y03257D01*
X02881Y03306D02*
X02891Y03316D01*
X02911*
X02921Y03306*
Y03267*
X02911Y03257*
X02891*
X02881Y03267*
Y03306*
X03022Y03257D02*
Y03316D01*
X03051*
X03061Y03306*
Y03286*
X03051Y03276*
X03022*
X03041D02*
X03061Y03257D01*
X03081D02*
X03101D01*
X03091*
Y03316*
X03081Y03306*
X03222Y03257D02*
Y03316D01*
X03251*
X03261Y03306*
Y03286*
X03251Y03276*
X03222*
X03241D02*
X03261Y03257D01*
X03321D02*
X03281D01*
X03321Y03296*
Y03306*
X03311Y03316*
X03291*
X03281Y03306*
X03422Y03257D02*
Y03316D01*
X03451*
X03461Y03306*
Y03286*
X03451Y03276*
X03422*
X03441D02*
X03461Y03257D01*
X03481Y03306D02*
X03491Y03316D01*
X03511*
X03521Y03306*
Y03296*
X03511Y03286*
X03501*
X03511*
X03521Y03276*
Y03267*
X03511Y03257*
X03491*
X03481Y03267*
X03602Y03257D02*
Y03316D01*
X03631*
X03641Y03306*
Y03286*
X03631Y03276*
X03602*
X03621D02*
X03641Y03257D01*
X03691D02*
Y03316D01*
X03661Y03286*
X03701*
X03522Y02338D02*
Y02397D01*
X03551*
X03561Y02387*
Y02367*
X03551Y02357*
X03522*
X03541D02*
X03561Y02338D01*
X03621Y02397D02*
X03581D01*
Y02367*
X03601Y02377*
X03611*
X03621Y02367*
Y02348*
X03611Y02338*
X03591*
X03581Y02348*
X03122Y02338D02*
Y02397D01*
X03151*
X03161Y02387*
Y02367*
X03151Y02357*
X03122*
X03141D02*
X03161Y02338D01*
X03181Y02397D02*
X03221D01*
Y02387*
X03181Y02348*
Y02338*
X02922D02*
Y02397D01*
X02951*
X02961Y02387*
Y02367*
X02951Y02357*
X02922*
X02941D02*
X02961Y02338D01*
X02981Y02387D02*
X02991Y02397D01*
X03011*
X03021Y02387*
Y02377*
X03011Y02367*
X03021Y02357*
Y02348*
X03011Y02338*
X02991*
X02981Y02348*
Y02357*
X02991Y02367*
X02981Y02377*
Y02387*
X02991Y02367D02*
X03011D01*
X02722Y02338D02*
Y02397D01*
X02751*
X02761Y02387*
Y02367*
X02751Y02357*
X02722*
X02741D02*
X02761Y02338D01*
X02781Y02348D02*
X02791Y02338D01*
X02811*
X02821Y02348*
Y02387*
X02811Y02397*
X02791*
X02781Y02387*
Y02377*
X02791Y02367*
X02821*
X01354Y0092D02*
Y00979D01*
X01383*
X01393Y00969*
Y00949*
X01383Y00939*
X01354*
X01373D02*
X01393Y0092D01*
X01413Y0091D02*
X01453D01*
X01473Y00979D02*
X01493D01*
X01483*
Y0092*
X01473*
X01493*
X01523D02*
Y00979D01*
X01553*
X01563Y00969*
Y00949*
X01553Y00939*
X01523*
X01543D02*
X01563Y0092D01*
X01623Y00979D02*
X01583D01*
Y0092*
X01623*
X01583Y00949D02*
X01603D01*
X01683Y00979D02*
X01643D01*
Y00949*
X01663*
X01643*
Y0092*
X01703Y0091D02*
X01743D01*
X01763Y00969D02*
X01773Y00979D01*
X01793*
X01803Y00969*
Y0093*
X01793Y0092*
X01773*
X01763Y0093*
Y00969*
X01521Y0424D02*
Y04299D01*
X0155*
X0156Y04289*
Y04269*
X0155Y04259*
X01521*
X0154D02*
X0156Y0424D01*
X0158Y0423D02*
X0162D01*
X0164Y04299D02*
X0166D01*
X0165*
Y0424*
X0164*
X0166*
X0169D02*
Y04299D01*
X0172*
X0173Y04289*
Y04269*
X0172Y04259*
X0169*
X0171D02*
X0173Y0424D01*
X0179Y04299D02*
X0175D01*
Y0424*
X0179*
X0175Y04269D02*
X0177D01*
X0185Y04299D02*
X0181D01*
Y04269*
X0183*
X0181*
Y0424*
X0187Y0423D02*
X0191D01*
X0193Y0424D02*
X0195D01*
X0194*
Y04299*
X0193Y04289*
X02381Y02316D02*
X02321D01*
Y02345*
X02331Y02355*
X02351*
X02361Y02345*
Y02316*
Y02335D02*
X02381Y02355D01*
X02321Y02375D02*
X02381D01*
Y02405*
X02371Y02415*
X02361*
X02351Y02405*
Y02375*
Y02405*
X02341Y02415*
X02331*
X02321Y02405*
Y02375*
X02331Y02435D02*
X02321Y02445D01*
Y02465*
X02331Y02475*
X02371*
X02381Y02465*
Y02445*
X02371Y02435*
X02331*
X01981Y02326D02*
X01921D01*
Y02355*
X01931Y02365*
X01951*
X01961Y02355*
Y02326*
Y02345D02*
X01981Y02365D01*
X01921Y02385D02*
X01981D01*
Y02415*
X01971Y02425*
X01961*
X01951Y02415*
Y02385*
Y02415*
X01941Y02425*
X01931*
X01921Y02415*
Y02385*
X01981Y02445D02*
Y02465D01*
Y02455*
X01921*
X01931Y02445*
X01576Y02301D02*
X01516D01*
Y0233*
X01526Y0234*
X01546*
X01556Y0233*
Y02301*
Y0232D02*
X01576Y0234D01*
X01516Y0236D02*
X01576D01*
Y0239*
X01566Y024*
X01556*
X01546Y0239*
Y0236*
Y0239*
X01536Y024*
X01526*
X01516Y0239*
Y0236*
X01576Y0246D02*
Y0242D01*
X01536Y0246*
X01526*
X01516Y0245*
Y0243*
X01526Y0242*
X01181Y02301D02*
X01121D01*
Y0233*
X01131Y0234*
X01151*
X01161Y0233*
Y02301*
Y0232D02*
X01181Y0234D01*
X01121Y0236D02*
X01181D01*
Y0239*
X01171Y024*
X01161*
X01151Y0239*
Y0236*
Y0239*
X01141Y024*
X01131*
X01121Y0239*
Y0236*
X01131Y0242D02*
X01121Y0243D01*
Y0245*
X01131Y0246*
X01141*
X01151Y0245*
Y0244*
Y0245*
X01161Y0246*
X01171*
X01181Y0245*
Y0243*
X01171Y0242*
X00776Y02301D02*
X00716D01*
Y0233*
X00726Y0234*
X00746*
X00756Y0233*
Y02301*
Y0232D02*
X00776Y0234D01*
X00716Y0236D02*
X00776D01*
Y0239*
X00766Y024*
X00756*
X00746Y0239*
Y0236*
Y0239*
X00736Y024*
X00726*
X00716Y0239*
Y0236*
X00776Y0245D02*
X00716D01*
X00746Y0242*
Y0246*
X01076Y03245D02*
X01016D01*
Y03274*
X01026Y03284*
X01046*
X01056Y03274*
Y03245*
Y03264D02*
X01076Y03284D01*
X01016Y03304D02*
X01076D01*
Y03334*
X01066Y03344*
X01056*
X01046Y03334*
Y03304*
Y03334*
X01036Y03344*
X01026*
X01016Y03334*
Y03304*
Y03404D02*
Y03364D01*
X01046*
X01036Y03384*
Y03394*
X01046Y03404*
X01066*
X01076Y03394*
Y03374*
X01066Y03364*
X01476Y03245D02*
X01416D01*
Y03274*
X01426Y03284*
X01446*
X01456Y03274*
Y03245*
Y03264D02*
X01476Y03284D01*
X01416Y03304D02*
X01476D01*
Y03334*
X01466Y03344*
X01456*
X01446Y03334*
Y03304*
Y03334*
X01436Y03344*
X01426*
X01416Y03334*
Y03304*
Y03404D02*
X01426Y03384D01*
X01446Y03364*
X01466*
X01476Y03374*
Y03394*
X01466Y03404*
X01456*
X01446Y03394*
Y03364*
X01871Y03245D02*
X01811D01*
Y03274*
X01821Y03284*
X01841*
X01851Y03274*
Y03245*
Y03264D02*
X01871Y03284D01*
X01811Y03304D02*
X01871D01*
Y03334*
X01861Y03344*
X01851*
X01841Y03334*
Y03304*
Y03334*
X01831Y03344*
X01821*
X01811Y03334*
Y03304*
Y03364D02*
Y03404D01*
X01821*
X01861Y03364*
X01871*
X02276Y03245D02*
X02216D01*
Y03274*
X02226Y03284*
X02246*
X02256Y03274*
Y03245*
Y03264D02*
X02276Y03284D01*
X02216Y03304D02*
X02276D01*
Y03334*
X02266Y03344*
X02256*
X02246Y03334*
Y03304*
Y03334*
X02236Y03344*
X02226*
X02216Y03334*
Y03304*
X02226Y03364D02*
X02216Y03374D01*
Y03394*
X02226Y03404*
X02236*
X02246Y03394*
X02256Y03404*
X02266*
X02276Y03394*
Y03374*
X02266Y03364*
X02256*
X02246Y03374*
X02236Y03364*
X02226*
X02246Y03374D02*
Y03394D01*
X02676Y03245D02*
X02616D01*
Y03274*
X02626Y03284*
X02646*
X02656Y03274*
Y03245*
Y03264D02*
X02676Y03284D01*
X02616Y03304D02*
X02676D01*
Y03334*
X02666Y03344*
X02656*
X02646Y03334*
Y03304*
Y03334*
X02636Y03344*
X02626*
X02616Y03334*
Y03304*
X02666Y03364D02*
X02676Y03374D01*
Y03394*
X02666Y03404*
X02626*
X02616Y03394*
Y03374*
X02626Y03364*
X02636*
X02646Y03374*
Y03404*
X02486Y02316D02*
X02426D01*
Y02345*
X02436Y02355*
X02456*
X02466Y02345*
Y02316*
Y02335D02*
X02486Y02355D01*
X02436Y02415D02*
X02426Y02405D01*
Y02385*
X02436Y02375*
X02476*
X02486Y02385*
Y02405*
X02476Y02415*
X02456*
Y02395*
X02436Y02435D02*
X02426Y02445D01*
Y02465*
X02436Y02475*
X02476*
X02486Y02465*
Y02445*
X02476Y02435*
X02436*
X02081Y02326D02*
X02021D01*
Y02355*
X02031Y02365*
X02051*
X02061Y02355*
Y02326*
Y02345D02*
X02081Y02365D01*
X02031Y02425D02*
X02021Y02415D01*
Y02395*
X02031Y02385*
X02071*
X02081Y02395*
Y02415*
X02071Y02425*
X02051*
Y02405*
X02081Y02445D02*
Y02465D01*
Y02455*
X02021*
X02031Y02445*
X01676Y02301D02*
X01616D01*
Y0233*
X01626Y0234*
X01646*
X01656Y0233*
Y02301*
Y0232D02*
X01676Y0234D01*
X01626Y024D02*
X01616Y0239D01*
Y0237*
X01626Y0236*
X01666*
X01676Y0237*
Y0239*
X01666Y024*
X01646*
Y0238*
X01676Y0246D02*
Y0242D01*
X01636Y0246*
X01626*
X01616Y0245*
Y0243*
X01626Y0242*
X01281Y02306D02*
X01221D01*
Y02335*
X01231Y02345*
X01251*
X01261Y02335*
Y02306*
Y02325D02*
X01281Y02345D01*
X01231Y02405D02*
X01221Y02395D01*
Y02375*
X01231Y02365*
X01271*
X01281Y02375*
Y02395*
X01271Y02405*
X01251*
Y02385*
X01231Y02425D02*
X01221Y02435D01*
Y02455*
X01231Y02465*
X01241*
X01251Y02455*
Y02445*
Y02455*
X01261Y02465*
X01271*
X01281Y02455*
Y02435*
X01271Y02425*
X00871Y02301D02*
X00811D01*
Y0233*
X00821Y0234*
X00841*
X00851Y0233*
Y02301*
Y0232D02*
X00871Y0234D01*
X00821Y024D02*
X00811Y0239D01*
Y0237*
X00821Y0236*
X00861*
X00871Y0237*
Y0239*
X00861Y024*
X00841*
Y0238*
X00871Y0245D02*
X00811D01*
X00841Y0242*
Y0246*
X00971Y03245D02*
X00911D01*
Y03274*
X00921Y03284*
X00941*
X00951Y03274*
Y03245*
Y03264D02*
X00971Y03284D01*
X00921Y03344D02*
X00911Y03334D01*
Y03314*
X00921Y03304*
X00961*
X00971Y03314*
Y03334*
X00961Y03344*
X00941*
Y03324*
X00911Y03404D02*
Y03364D01*
X00941*
X00931Y03384*
Y03394*
X00941Y03404*
X00961*
X00971Y03394*
Y03374*
X00961Y03364*
X01376Y03245D02*
X01316D01*
Y03274*
X01326Y03284*
X01346*
X01356Y03274*
Y03245*
Y03264D02*
X01376Y03284D01*
X01326Y03344D02*
X01316Y03334D01*
Y03314*
X01326Y03304*
X01366*
X01376Y03314*
Y03334*
X01366Y03344*
X01346*
Y03324*
X01316Y03404D02*
X01326Y03384D01*
X01346Y03364*
X01366*
X01376Y03374*
Y03394*
X01366Y03404*
X01356*
X01346Y03394*
Y03364*
X01776Y03245D02*
X01716D01*
Y03274*
X01726Y03284*
X01746*
X01756Y03274*
Y03245*
Y03264D02*
X01776Y03284D01*
X01726Y03344D02*
X01716Y03334D01*
Y03314*
X01726Y03304*
X01766*
X01776Y03314*
Y03334*
X01766Y03344*
X01746*
Y03324*
X01716Y03364D02*
Y03404D01*
X01726*
X01766Y03364*
X01776*
X02171Y03245D02*
X02111D01*
Y03274*
X02121Y03284*
X02141*
X02151Y03274*
Y03245*
Y03264D02*
X02171Y03284D01*
X02121Y03344D02*
X02111Y03334D01*
Y03314*
X02121Y03304*
X02161*
X02171Y03314*
Y03334*
X02161Y03344*
X02141*
Y03324*
X02121Y03364D02*
X02111Y03374D01*
Y03394*
X02121Y03404*
X02131*
X02141Y03394*
X02151Y03404*
X02161*
X02171Y03394*
Y03374*
X02161Y03364*
X02151*
X02141Y03374*
X02131Y03364*
X02121*
X02141Y03374D02*
Y03394D01*
X02576Y03245D02*
X02516D01*
Y03274*
X02526Y03284*
X02546*
X02556Y03274*
Y03245*
Y03264D02*
X02576Y03284D01*
X02526Y03344D02*
X02516Y03334D01*
Y03314*
X02526Y03304*
X02566*
X02576Y03314*
Y03334*
X02566Y03344*
X02546*
Y03324*
X02566Y03364D02*
X02576Y03374D01*
Y03394*
X02566Y03404*
X02526*
X02516Y03394*
Y03374*
X02526Y03364*
X02536*
X02546Y03374*
Y03404*
X02581Y02321D02*
X02521D01*
Y0235*
X02531Y0236*
X02551*
X02561Y0235*
Y02321*
Y0234D02*
X02581Y0236D01*
Y0238D02*
X02521D01*
Y0241*
X02531Y0242*
X02551*
X02561Y0241*
Y0238*
Y024D02*
X02581Y0242D01*
X02531Y0244D02*
X02521Y0245D01*
Y0247*
X02531Y0248*
X02571*
X02581Y0247*
Y0245*
X02571Y0244*
X02531*
X02176Y02321D02*
X02116D01*
Y0235*
X02126Y0236*
X02146*
X02156Y0235*
Y02321*
Y0234D02*
X02176Y0236D01*
Y0238D02*
X02116D01*
Y0241*
X02126Y0242*
X02146*
X02156Y0241*
Y0238*
Y024D02*
X02176Y0242D01*
Y0244D02*
Y0246D01*
Y0245*
X02116*
X02126Y0244*
X01776Y02301D02*
X01716D01*
Y0233*
X01726Y0234*
X01746*
X01756Y0233*
Y02301*
Y0232D02*
X01776Y0234D01*
Y0236D02*
X01716D01*
Y0239*
X01726Y024*
X01746*
X01756Y0239*
Y0236*
Y0238D02*
X01776Y024D01*
Y0246D02*
Y0242D01*
X01736Y0246*
X01726*
X01716Y0245*
Y0243*
X01726Y0242*
X01381Y02301D02*
X01321D01*
Y0233*
X01331Y0234*
X01351*
X01361Y0233*
Y02301*
Y0232D02*
X01381Y0234D01*
Y0236D02*
X01321D01*
Y0239*
X01331Y024*
X01351*
X01361Y0239*
Y0236*
Y0238D02*
X01381Y024D01*
X01331Y0242D02*
X01321Y0243D01*
Y0245*
X01331Y0246*
X01341*
X01351Y0245*
Y0244*
Y0245*
X01361Y0246*
X01371*
X01381Y0245*
Y0243*
X01371Y0242*
X00976Y02301D02*
X00916D01*
Y0233*
X00926Y0234*
X00946*
X00956Y0233*
Y02301*
Y0232D02*
X00976Y0234D01*
Y0236D02*
X00916D01*
Y0239*
X00926Y024*
X00946*
X00956Y0239*
Y0236*
Y0238D02*
X00976Y024D01*
Y0245D02*
X00916D01*
X00946Y0242*
Y0246*
X00871Y03245D02*
X00811D01*
Y03274*
X00821Y03284*
X00841*
X00851Y03274*
Y03245*
Y03264D02*
X00871Y03284D01*
Y03304D02*
X00811D01*
Y03334*
X00821Y03344*
X00841*
X00851Y03334*
Y03304*
Y03324D02*
X00871Y03344D01*
X00811Y03404D02*
Y03364D01*
X00841*
X00831Y03384*
Y03394*
X00841Y03404*
X00861*
X00871Y03394*
Y03374*
X00861Y03364*
X01276Y03245D02*
X01216D01*
Y03274*
X01226Y03284*
X01246*
X01256Y03274*
Y03245*
Y03264D02*
X01276Y03284D01*
Y03304D02*
X01216D01*
Y03334*
X01226Y03344*
X01246*
X01256Y03334*
Y03304*
Y03324D02*
X01276Y03344D01*
X01216Y03404D02*
X01226Y03384D01*
X01246Y03364*
X01266*
X01276Y03374*
Y03394*
X01266Y03404*
X01256*
X01246Y03394*
Y03364*
X01671Y03245D02*
X01611D01*
Y03274*
X01621Y03284*
X01641*
X01651Y03274*
Y03245*
Y03264D02*
X01671Y03284D01*
Y03304D02*
X01611D01*
Y03334*
X01621Y03344*
X01641*
X01651Y03334*
Y03304*
Y03324D02*
X01671Y03344D01*
X01611Y03364D02*
Y03404D01*
X01621*
X01661Y03364*
X01671*
X02076Y03245D02*
X02016D01*
Y03274*
X02026Y03284*
X02046*
X02056Y03274*
Y03245*
Y03264D02*
X02076Y03284D01*
Y03304D02*
X02016D01*
Y03334*
X02026Y03344*
X02046*
X02056Y03334*
Y03304*
Y03324D02*
X02076Y03344D01*
X02026Y03364D02*
X02016Y03374D01*
Y03394*
X02026Y03404*
X02036*
X02046Y03394*
X02056Y03404*
X02066*
X02076Y03394*
Y03374*
X02066Y03364*
X02056*
X02046Y03374*
X02036Y03364*
X02026*
X02046Y03374D02*
Y03394D01*
X02476Y03245D02*
X02416D01*
Y03274*
X02426Y03284*
X02446*
X02456Y03274*
Y03245*
Y03264D02*
X02476Y03284D01*
Y03304D02*
X02416D01*
Y03334*
X02426Y03344*
X02446*
X02456Y03334*
Y03304*
Y03324D02*
X02476Y03344D01*
X02466Y03364D02*
X02476Y03374D01*
Y03394*
X02466Y03404*
X02426*
X02416Y03394*
Y03374*
X02426Y03364*
X02436*
X02446Y03374*
Y03404*
X00869Y04038D02*
X00908D01*
X00888*
Y03979*
X00928Y04038D02*
Y03979D01*
X00968*
X01028Y04028D02*
X01018Y04038D01*
X00998*
X00988Y04028*
Y03989*
X00998Y03979*
X01018*
X01028Y03989*
X01088Y04038D02*
X01048D01*
Y04008*
X01068Y04018*
X01078*
X01088Y04008*
Y03989*
X01078Y03979*
X01058*
X01048Y03989*
X01108D02*
X01118Y03979D01*
X01138*
X01148Y03989*
Y04028*
X01138Y04038*
X01118*
X01108Y04028*
Y04018*
X01118Y04008*
X01148*
X01198Y03979D02*
Y04038D01*
X01168Y04008*
X01208*
X01228Y04028D02*
X01238Y04038D01*
X01258*
X01268Y04028*
Y03989*
X01258Y03979*
X01238*
X01228Y03989*
Y04028*
X01288Y03969D02*
X01328D01*
X01348Y03979D02*
X01368D01*
X01358*
Y04038*
X01348Y04028*
G54D24*
X04566Y03465D02*
Y03448D01*
Y03456*
X04615*
X04607Y03465*
X04615Y03423D02*
Y0339D01*
X04607*
X04574Y03423*
X04566*
X04466Y03425D02*
Y03408D01*
Y03416*
X04515*
X04507Y03425*
X04466Y01766D02*
Y01749D01*
Y01757*
X04515*
X04507Y01766*
X04515Y01691D02*
X04507Y01707D01*
X0449Y01724*
X04474*
X04466Y01716*
Y01699*
X04474Y01691*
X04482*
X0449Y01699*
Y01724*
X04607Y01766D02*
X04615Y01757D01*
Y01741*
X04607Y01732*
X04599*
X0459Y01741*
Y01749*
Y01741*
X04582Y01732*
X04574*
X04566Y01741*
Y01757*
X04574Y01766*
X04566Y01682D02*
Y01716D01*
X04599Y01682*
X04607*
X04615Y01691*
Y01707*
X04607Y01716*
X03759Y02729D02*
X03742Y02721D01*
X03726Y02704*
Y02688*
X03734Y0268*
X0375*
X03759Y02688*
Y02696*
X0375Y02704*
X03726*
X03775Y02721D02*
X03784Y02729D01*
X038*
X03809Y02721*
Y02688*
X038Y0268*
X03784*
X03775Y02688*
Y02721*
X03759Y02629D02*
X03726D01*
Y02604*
X03742Y02613*
X0375*
X03759Y02604*
Y02588*
X0375Y0258*
X03734*
X03726Y02588*
X03775D02*
X03784Y0258D01*
X038*
X03809Y02588*
Y02621*
X038Y02629*
X03784*
X03775Y02621*
Y02613*
X03784Y02604*
X03809*
X00646Y0258D02*
X00662D01*
X00654*
Y02629*
X00646Y02621*
X00679Y0268D02*
X00646D01*
X00679Y02713*
Y02721*
X0067Y02729*
X00654*
X00646Y02721*
G54D21*
X06872Y01326D02*
D01*
X0687Y01325*
X06869*
X06867*
X06865*
X06864Y01324*
X06862Y01323*
X0686*
X06859Y01322*
X06857Y01321*
X06856Y0132*
X06855Y01318*
X06854Y01317*
X06852Y01316*
X06851Y01314*
X0685Y01313*
Y01311*
X06849Y0131*
X06848Y01308*
Y01307*
X06847Y01305*
Y01303*
Y01301*
Y013*
Y01298*
Y01296*
X06848Y01294*
Y01293*
X06849Y01291*
X0685Y0129*
Y01288*
X06851Y01287*
X06852Y01285*
X06854Y01284*
X06855Y01283*
X06856Y01281*
X06857Y0128*
X06859Y01279*
X0686Y01278*
X06862*
X06864Y01277*
X06865Y01276*
X06867*
X06869*
X0687*
X06872*
X05492Y0373D02*
D01*
X05494*
X05495*
X05497*
X05499*
X055Y03731*
X05502Y03732*
X05504*
X05505Y03733*
X05507Y03734*
X05508Y03735*
X05509Y03737*
X0551Y03738*
X05512Y03739*
X05513Y03741*
X05514Y03742*
Y03744*
X05515Y03745*
X05516Y03747*
Y03748*
X05517Y0375*
Y03752*
Y03754*
Y03755*
Y03757*
Y03759*
X05516Y03761*
Y03762*
X05515Y03764*
X05514Y03765*
Y03767*
X05513Y03768*
X05512Y0377*
X0551Y03771*
X05509Y03772*
X05508Y03774*
X05507Y03775*
X05505Y03776*
X05504Y03777*
X05502*
X055Y03778*
X05499Y03779*
X05497*
X05495*
X05494*
X05492Y0378*
G54D22*
X09265Y01776D02*
Y03375D01*
X09065Y01776D02*
X09265D01*
X09065D02*
Y03375D01*
X09265*
X06872Y01326D02*
Y01405D01*
Y01196D02*
Y01276D01*
X05447Y01196D02*
Y01405D01*
X06872*
X05447Y01196D02*
X06872D01*
X08192Y03624D02*
Y03825D01*
X08317Y03624D02*
Y03825D01*
X08192D02*
X08317D01*
X08192Y03624D02*
X08317D01*
X08012D02*
Y03825D01*
X08137Y03624D02*
Y03825D01*
X08012D02*
X08137D01*
X08012Y03624D02*
X08137D01*
X07812D02*
Y03825D01*
X07937Y03624D02*
Y03825D01*
X07812D02*
X07937D01*
X07812Y03624D02*
X07937D01*
X07612D02*
Y03825D01*
X07737Y03624D02*
Y03825D01*
X07612D02*
X07737D01*
X07612Y03624D02*
X07737D01*
X07412D02*
Y03825D01*
X07537Y03624D02*
Y03825D01*
X07412D02*
X07537D01*
X07412Y03624D02*
X07537D01*
X08237Y01385D02*
Y01586D01*
X08112Y01385D02*
Y01586D01*
Y01385D02*
X08237D01*
X08112Y01586D02*
X08237D01*
X08037Y01385D02*
Y01586D01*
X07912Y01385D02*
Y01586D01*
Y01385D02*
X08037D01*
X07912Y01586D02*
X08037D01*
X07437Y01385D02*
Y01586D01*
X07312Y01385D02*
Y01586D01*
Y01385D02*
X07437D01*
X07312Y01586D02*
X07437D01*
X07637Y01385D02*
Y01586D01*
X07512Y01385D02*
Y01586D01*
Y01385D02*
X07637D01*
X07512Y01586D02*
X07637D01*
X07837Y01385D02*
Y01586D01*
X07712Y01385D02*
Y01586D01*
Y01385D02*
X07837D01*
X07712Y01586D02*
X07837D01*
X05165Y00646D02*
Y04365D01*
X0946*
Y00646D02*
Y04365D01*
X05165Y00646D02*
X0946D01*
X05875Y02926D02*
Y02935D01*
Y03135D02*
Y03144D01*
X05845Y02935D02*
X05875D01*
X05845D02*
Y03135D01*
X05905*
Y02935D02*
Y03135D01*
X05875Y02935D02*
X05905D01*
X05675Y02926D02*
Y02935D01*
Y03135D02*
Y03144D01*
X05645Y02935D02*
X05675D01*
X05645D02*
Y03135D01*
X05705*
Y02935D02*
Y03135D01*
X05675Y02935D02*
X05705D01*
X05575Y02926D02*
Y02935D01*
Y03135D02*
Y03144D01*
X05545Y02935D02*
X05575D01*
X05545D02*
Y03135D01*
X05605*
Y02935D02*
Y03135D01*
X05575Y02935D02*
X05605D01*
X05475Y02926D02*
Y02935D01*
Y03135D02*
Y03144D01*
X05445Y02935D02*
X05475D01*
X05445D02*
Y03135D01*
X05505*
Y02935D02*
Y03135D01*
X05475Y02935D02*
X05505D01*
X07375Y02226D02*
Y02235D01*
Y02017D02*
Y02026D01*
Y02226D02*
X07405D01*
Y02026D02*
Y02226D01*
X07345Y02026D02*
X07405D01*
X07345D02*
Y02226D01*
X07375*
X07575D02*
Y02235D01*
Y02017D02*
Y02026D01*
Y02226D02*
X07605D01*
Y02026D02*
Y02226D01*
X07545Y02026D02*
X07605D01*
X07545D02*
Y02226D01*
X07575*
X07775D02*
Y02235D01*
Y02017D02*
Y02026D01*
Y02226D02*
X07805D01*
Y02026D02*
Y02226D01*
X07745Y02026D02*
X07805D01*
X07745D02*
Y02226D01*
X07775*
X07975D02*
Y02235D01*
Y02017D02*
Y02026D01*
Y02226D02*
X08005D01*
Y02026D02*
Y02226D01*
X07945Y02026D02*
X08005D01*
X07945D02*
Y02226D01*
X07975*
X08175D02*
Y02235D01*
Y02017D02*
Y02026D01*
Y02226D02*
X08205D01*
Y02026D02*
Y02226D01*
X08145Y02026D02*
X08205D01*
X08145D02*
Y02226D01*
X08175*
X08255Y02936D02*
Y02945D01*
Y03145D02*
Y03154D01*
X08225Y02945D02*
X08255D01*
X08225D02*
Y03145D01*
X08285*
Y02945D02*
Y03145D01*
X08255Y02945D02*
X08285D01*
X08075Y02936D02*
Y02945D01*
Y03145D02*
Y03154D01*
X08045Y02945D02*
X08075D01*
X08045D02*
Y03145D01*
X08105*
Y02945D02*
Y03145D01*
X08075Y02945D02*
X08105D01*
X07875Y02936D02*
Y02945D01*
Y03145D02*
Y03154D01*
X07845Y02945D02*
X07875D01*
X07845D02*
Y03145D01*
X07905*
Y02945D02*
Y03145D01*
X07875Y02945D02*
X07905D01*
X06046Y00846D02*
X06055D01*
X06255D02*
X06264D01*
X06055D02*
Y00876D01*
X06255*
Y00816D02*
Y00876D01*
X06055Y00816D02*
X06255D01*
X06055D02*
Y00846D01*
X07675Y02936D02*
Y02945D01*
Y03145D02*
Y03154D01*
X07645Y02945D02*
X07675D01*
X07645D02*
Y03145D01*
X07705*
Y02945D02*
Y03145D01*
X07675Y02945D02*
X07705D01*
X07475Y02936D02*
Y02945D01*
Y03145D02*
Y03154D01*
X07445Y02945D02*
X07475D01*
X07445D02*
Y03145D01*
X07505*
Y02945D02*
Y03145D01*
X07475Y02945D02*
X07505D01*
X05325Y0255D02*
X0833D01*
X05325Y0275D02*
X0833D01*
X05325Y0255D02*
Y0275D01*
X0833Y0255D02*
Y0275D01*
X05492Y0365D02*
Y0373D01*
Y0378D02*
Y03859D01*
X06917Y0365D02*
Y03859D01*
X05492Y0365D02*
X06917D01*
X05492Y03859D02*
X06917D01*
X06395Y04165D02*
X06404D01*
X06186D02*
X06195D01*
X06395Y04135D02*
Y04165D01*
X06195Y04135D02*
X06395D01*
X06195D02*
Y04195D01*
X06395*
Y04165D02*
Y04195D01*
X05375Y02201D02*
Y0221D01*
Y01992D02*
Y02001D01*
Y02201D02*
X05405D01*
Y02001D02*
Y02201D01*
X05345Y02001D02*
X05405D01*
X05345D02*
Y02201D01*
X05375*
X05475D02*
Y0221D01*
Y01992D02*
Y02001D01*
Y02201D02*
X05505D01*
Y02001D02*
Y02201D01*
X05445Y02001D02*
X05505D01*
X05445D02*
Y02201D01*
X05475*
X05575D02*
Y0221D01*
Y01992D02*
Y02001D01*
Y02201D02*
X05605D01*
Y02001D02*
Y02201D01*
X05545Y02001D02*
X05605D01*
X05545D02*
Y02201D01*
X05575*
X05775D02*
Y0221D01*
Y01992D02*
Y02001D01*
Y02201D02*
X05805D01*
Y02001D02*
Y02201D01*
X05745Y02001D02*
X05805D01*
X05745D02*
Y02201D01*
X05775*
X05875D02*
Y0221D01*
Y01992D02*
Y02001D01*
Y02201D02*
X05905D01*
Y02001D02*
Y02201D01*
X05845Y02001D02*
X05905D01*
X05845D02*
Y02201D01*
X05875*
X05975D02*
Y0221D01*
Y01992D02*
Y02001D01*
Y02201D02*
X06005D01*
Y02001D02*
Y02201D01*
X05945Y02001D02*
X06005D01*
X05945D02*
Y02201D01*
X05975*
X06175D02*
Y0221D01*
Y01992D02*
Y02001D01*
Y02201D02*
X06205D01*
Y02001D02*
Y02201D01*
X06145Y02001D02*
X06205D01*
X06145D02*
Y02201D01*
X06175*
X06275D02*
Y0221D01*
Y01992D02*
Y02001D01*
Y02201D02*
X06305D01*
Y02001D02*
Y02201D01*
X06245Y02001D02*
X06305D01*
X06245D02*
Y02201D01*
X06275*
X06375D02*
Y0221D01*
Y01992D02*
Y02001D01*
Y02201D02*
X06405D01*
Y02001D02*
Y02201D01*
X06345Y02001D02*
X06405D01*
X06345D02*
Y02201D01*
X06375*
X06575Y02221D02*
Y0223D01*
Y02012D02*
Y02021D01*
Y02221D02*
X06605D01*
Y02021D02*
Y02221D01*
X06545Y02021D02*
X06605D01*
X06545D02*
Y02221D01*
X06575*
X06675D02*
Y0223D01*
Y02012D02*
Y02021D01*
Y02221D02*
X06705D01*
Y02021D02*
Y02221D01*
X06645Y02021D02*
X06705D01*
X06645D02*
Y02221D01*
X06675*
X06775D02*
Y0223D01*
Y02012D02*
Y02021D01*
Y02221D02*
X06805D01*
Y02021D02*
Y02221D01*
X06745Y02021D02*
X06805D01*
X06745D02*
Y02221D01*
X06775*
X0698Y02216D02*
Y02225D01*
Y02007D02*
Y02016D01*
Y02216D02*
X0701D01*
Y02016D02*
Y02216D01*
X0695Y02016D02*
X0701D01*
X0695D02*
Y02216D01*
X0698*
X0708D02*
Y02225D01*
Y02007D02*
Y02016D01*
Y02216D02*
X0711D01*
Y02016D02*
Y02216D01*
X0705Y02016D02*
X0711D01*
X0705D02*
Y02216D01*
X0708*
X07175Y02221D02*
Y0223D01*
Y02012D02*
Y02021D01*
Y02221D02*
X07205D01*
Y02021D02*
Y02221D01*
X07145Y02021D02*
X07205D01*
X07145D02*
Y02221D01*
X07175*
X07275Y02926D02*
Y02935D01*
Y03135D02*
Y03144D01*
X07245Y02935D02*
X07275D01*
X07245D02*
Y03135D01*
X07305*
Y02935D02*
Y03135D01*
X07275Y02935D02*
X07305D01*
X05975Y02926D02*
Y02935D01*
Y03135D02*
Y03144D01*
X05945Y02935D02*
X05975D01*
X05945D02*
Y03135D01*
X06005*
Y02935D02*
Y03135D01*
X05975Y02935D02*
X06005D01*
X06075Y02926D02*
Y02935D01*
Y03135D02*
Y03144D01*
X06045Y02935D02*
X06075D01*
X06045D02*
Y03135D01*
X06105*
Y02935D02*
Y03135D01*
X06075Y02935D02*
X06105D01*
X06275Y02926D02*
Y02935D01*
Y03135D02*
Y03144D01*
X06245Y02935D02*
X06275D01*
X06245D02*
Y03135D01*
X06305*
Y02935D02*
Y03135D01*
X06275Y02935D02*
X06305D01*
X06375Y02926D02*
Y02935D01*
Y03135D02*
Y03144D01*
X06345Y02935D02*
X06375D01*
X06345D02*
Y03135D01*
X06405*
Y02935D02*
Y03135D01*
X06375Y02935D02*
X06405D01*
X06475Y02926D02*
Y02935D01*
Y03135D02*
Y03144D01*
X06445Y02935D02*
X06475D01*
X06445D02*
Y03135D01*
X06505*
Y02935D02*
Y03135D01*
X06475Y02935D02*
X06505D01*
X06675Y02926D02*
Y02935D01*
Y03135D02*
Y03144D01*
X06645Y02935D02*
X06675D01*
X06645D02*
Y03135D01*
X06705*
Y02935D02*
Y03135D01*
X06675Y02935D02*
X06705D01*
X06775Y02926D02*
Y02935D01*
Y03135D02*
Y03144D01*
X06745Y02935D02*
X06775D01*
X06745D02*
Y03135D01*
X06805*
Y02935D02*
Y03135D01*
X06775Y02935D02*
X06805D01*
X06875Y02926D02*
Y02935D01*
Y03135D02*
Y03144D01*
X06845Y02935D02*
X06875D01*
X06845D02*
Y03135D01*
X06905*
Y02935D02*
Y03135D01*
X06875Y02935D02*
X06905D01*
X07075Y02926D02*
Y02935D01*
Y03135D02*
Y03144D01*
X07045Y02935D02*
X07075D01*
X07045D02*
Y03135D01*
X07105*
Y02935D02*
Y03135D01*
X07075Y02935D02*
X07105D01*
X07175Y02926D02*
Y02935D01*
Y03135D02*
Y03144D01*
X07145Y02935D02*
X07175D01*
X07145D02*
Y03135D01*
X07205*
Y02935D02*
Y03135D01*
X07175Y02935D02*
X07205D01*
X08685Y00881D02*
X0869Y00876D01*
X0879*
X08865Y00951*
Y00876D02*
Y00951D01*
Y00876D02*
X0889Y00851D01*
Y00751D02*
Y00851D01*
X0887Y00731D02*
X0889Y00751D01*
X0864Y00731D02*
X0887D01*
X08615D02*
X0864D01*
X0861D02*
X08615D01*
X0859Y00751D02*
X0861Y00731D01*
X0859Y00751D02*
Y00851D01*
X08615Y00876*
X08655Y00866D02*
X08675D01*
X0871Y00831*
X08715Y00791D02*
X08765D01*
Y00781D02*
Y00791D01*
X0874Y00756D02*
X08765Y00781D01*
X08715D02*
X0874Y00756D01*
X08715Y00781D02*
Y00791D01*
X08665Y00816D02*
Y00841D01*
X08815Y00816D02*
Y00841D01*
X0877Y00831D02*
X08805Y00866D01*
X08825*
X0889Y00826D02*
X0894D01*
X0889Y00801D02*
X0894D01*
X0854Y00826D02*
X0859D01*
X0854Y00801D02*
X0859D01*
X08615Y00951D02*
X08685Y00881D01*
X08615Y00876D02*
Y00951D01*
G54D23*
X08965Y03569D02*
Y0351D01*
Y03539*
X09004*
Y03569*
Y0351*
X09024Y03569D02*
Y0351D01*
X09054*
X09064Y0352*
Y03559*
X09054Y03569*
X09024*
X09084Y0351D02*
Y03569D01*
X09114*
X09124Y03559*
Y03539*
X09114Y03529*
X09084*
X09104D02*
X09124Y0351D01*
X09144Y035D02*
X09184D01*
X09204Y0351D02*
Y03549D01*
X09224Y03569*
X09244Y03549*
Y0351*
Y03539*
X09204*
X09264Y0351D02*
Y03569D01*
X09294*
X09304Y03559*
Y03539*
X09294Y03529*
X09264*
X09284D02*
X09304Y0351D01*
X09324D02*
Y03569D01*
X09344Y03549*
X09364Y03569*
Y0351*
X05453Y01584D02*
X05492D01*
X05472*
Y01525*
X05512Y01584D02*
Y01525D01*
X05552*
X05612Y01574D02*
X05602Y01584D01*
X05582*
X05572Y01574*
Y01535*
X05582Y01525*
X05602*
X05612Y01535*
X05672Y01584D02*
X05632D01*
Y01554*
X05652Y01564*
X05662*
X05672Y01554*
Y01535*
X05662Y01525*
X05642*
X05632Y01535*
X05692D02*
X05702Y01525D01*
X05722*
X05732Y01535*
Y01574*
X05722Y01584*
X05702*
X05692Y01574*
Y01564*
X05702Y01554*
X05732*
X05782Y01525D02*
Y01584D01*
X05752Y01554*
X05792*
X05812Y01574D02*
X05822Y01584D01*
X05842*
X05852Y01574*
Y01535*
X05842Y01525*
X05822*
X05812Y01535*
Y01574*
X05872Y01515D02*
X05912D01*
X05932Y01574D02*
X05942Y01584D01*
X05962*
X05972Y01574*
Y01535*
X05962Y01525*
X05942*
X05932Y01535*
Y01574*
X07951Y02338D02*
Y02397D01*
X0798*
X0799Y02387*
Y02367*
X0798Y02357*
X07951*
X0797D02*
X0799Y02338D01*
X0805Y02397D02*
X0803Y02387D01*
X0801Y02367*
Y02348*
X0802Y02338*
X0804*
X0805Y02348*
Y02357*
X0804Y02367*
X0801*
X07464Y03899D02*
X07454Y03909D01*
X07435*
X07425Y03899*
Y0386*
X07435Y0385*
X07454*
X07464Y0386*
X07484Y03899D02*
X07494Y03909D01*
X07514*
X07524Y03899*
Y0386*
X07514Y0385*
X07494*
X07484Y0386*
Y03899*
X07669D02*
X07659Y03909D01*
X0764*
X0763Y03899*
Y0386*
X0764Y0385*
X07659*
X07669Y0386*
X07689Y0385D02*
X07709D01*
X07699*
Y03909*
X07689Y03899*
X07864Y03904D02*
X07854Y03914D01*
X07835*
X07825Y03904*
Y03865*
X07835Y03855*
X07854*
X07864Y03865*
X07924Y03855D02*
X07884D01*
X07924Y03894*
Y03904*
X07914Y03914*
X07894*
X07884Y03904*
X08069Y03909D02*
X08059Y03919D01*
X0804*
X0803Y03909*
Y0387*
X0804Y0386*
X08059*
X08069Y0387*
X08089Y03909D02*
X08099Y03919D01*
X08119*
X08129Y03909*
Y03899*
X08119Y03889*
X08109*
X08119*
X08129Y03879*
Y0387*
X08119Y0386*
X08099*
X08089Y0387*
X08244Y03914D02*
X08234Y03924D01*
X08215*
X08205Y03914*
Y03875*
X08215Y03865*
X08234*
X08244Y03875*
X08294Y03865D02*
Y03924D01*
X08264Y03894*
X08304*
X08164Y01335D02*
X08154Y01345D01*
X08135*
X08125Y01335*
Y01296*
X08135Y01286*
X08154*
X08164Y01296*
X08224Y01345D02*
X08184D01*
Y01315*
X08204Y01325*
X08214*
X08224Y01315*
Y01296*
X08214Y01286*
X08194*
X08184Y01296*
X07954Y01335D02*
X07944Y01345D01*
X07925*
X07915Y01335*
Y01296*
X07925Y01286*
X07944*
X07954Y01296*
X08014Y01345D02*
X07994Y01335D01*
X07974Y01315*
Y01296*
X07984Y01286*
X08004*
X08014Y01296*
Y01305*
X08004Y01315*
X07974*
X07764Y01325D02*
X07754Y01335D01*
X07735*
X07725Y01325*
Y01286*
X07735Y01276*
X07754*
X07764Y01286*
X07784Y01335D02*
X07824D01*
Y01325*
X07784Y01286*
Y01276*
X07564Y0133D02*
X07554Y0134D01*
X07535*
X07525Y0133*
Y01291*
X07535Y01281*
X07554*
X07564Y01291*
X07584Y0133D02*
X07594Y0134D01*
X07614*
X07624Y0133*
Y0132*
X07614Y0131*
X07624Y013*
Y01291*
X07614Y01281*
X07594*
X07584Y01291*
Y013*
X07594Y0131*
X07584Y0132*
Y0133*
X07594Y0131D02*
X07614D01*
X07359Y01325D02*
X07349Y01335D01*
X0733*
X0732Y01325*
Y01286*
X0733Y01276*
X07349*
X07359Y01286*
X07379D02*
X07389Y01276D01*
X07409*
X07419Y01286*
Y01325*
X07409Y01335*
X07389*
X07379Y01325*
Y01315*
X07389Y01305*
X07419*
X05245Y02889D02*
Y0283D01*
Y02859*
X05284*
Y02889*
Y0283*
X05304Y02889D02*
Y0283D01*
X05334*
X05344Y0284*
Y02879*
X05334Y02889*
X05304*
X05364Y0283D02*
Y02889D01*
X05394*
X05404Y02879*
Y02859*
X05394Y02849*
X05364*
X05384D02*
X05404Y0283D01*
X05424Y0282D02*
X05464D01*
X05484Y02889D02*
Y0283D01*
X05524*
X05584Y02889D02*
X05544D01*
Y0283*
X05584*
X05544Y02859D02*
X05564D01*
X05604Y02889D02*
Y0283D01*
X05634*
X05644Y0284*
Y02879*
X05634Y02889*
X05604*
X05664Y0282D02*
X05704D01*
X05724Y0283D02*
Y02889D01*
X05754*
X05764Y02879*
Y02859*
X05754Y02849*
X05724*
X05744D02*
X05764Y0283D01*
X05824Y02889D02*
X05784D01*
Y0283*
X05824*
X05784Y02859D02*
X05804D01*
X05884Y02879D02*
X05874Y02889D01*
X05854*
X05844Y02879*
Y02869*
X05854Y02859*
X05874*
X05884Y02849*
Y0284*
X05874Y0283*
X05854*
X05844Y0284*
X07451Y03257D02*
Y03316D01*
X0748*
X0749Y03306*
Y03286*
X0748Y03276*
X07451*
X0747D02*
X0749Y03257D01*
X0751Y03306D02*
X0752Y03316D01*
X0754*
X0755Y03306*
Y03267*
X0754Y03257*
X0752*
X0751Y03267*
Y03306*
X07651Y03257D02*
Y03316D01*
X0768*
X0769Y03306*
Y03286*
X0768Y03276*
X07651*
X0767D02*
X0769Y03257D01*
X0771D02*
X0773D01*
X0772*
Y03316*
X0771Y03306*
X07851Y03257D02*
Y03316D01*
X0788*
X0789Y03306*
Y03286*
X0788Y03276*
X07851*
X0787D02*
X0789Y03257D01*
X0795D02*
X0791D01*
X0795Y03296*
Y03306*
X0794Y03316*
X0792*
X0791Y03306*
X08051Y03257D02*
Y03316D01*
X0808*
X0809Y03306*
Y03286*
X0808Y03276*
X08051*
X0807D02*
X0809Y03257D01*
X0811Y03306D02*
X0812Y03316D01*
X0814*
X0815Y03306*
Y03296*
X0814Y03286*
X0813*
X0814*
X0815Y03276*
Y03267*
X0814Y03257*
X0812*
X0811Y03267*
X08231Y03257D02*
Y03316D01*
X0826*
X0827Y03306*
Y03286*
X0826Y03276*
X08231*
X0825D02*
X0827Y03257D01*
X0832D02*
Y03316D01*
X0829Y03286*
X0833*
X08151Y02338D02*
Y02397D01*
X0818*
X0819Y02387*
Y02367*
X0818Y02357*
X08151*
X0817D02*
X0819Y02338D01*
X0825Y02397D02*
X0821D01*
Y02367*
X0823Y02377*
X0824*
X0825Y02367*
Y02348*
X0824Y02338*
X0822*
X0821Y02348*
X07751Y02338D02*
Y02397D01*
X0778*
X0779Y02387*
Y02367*
X0778Y02357*
X07751*
X0777D02*
X0779Y02338D01*
X0781Y02397D02*
X0785D01*
Y02387*
X0781Y02348*
Y02338*
X07551D02*
Y02397D01*
X0758*
X0759Y02387*
Y02367*
X0758Y02357*
X07551*
X0757D02*
X0759Y02338D01*
X0761Y02387D02*
X0762Y02397D01*
X0764*
X0765Y02387*
Y02377*
X0764Y02367*
X0765Y02357*
Y02348*
X0764Y02338*
X0762*
X0761Y02348*
Y02357*
X0762Y02367*
X0761Y02377*
Y02387*
X0762Y02367D02*
X0764D01*
X07351Y02338D02*
Y02397D01*
X0738*
X0739Y02387*
Y02367*
X0738Y02357*
X07351*
X0737D02*
X0739Y02338D01*
X0741Y02348D02*
X0742Y02338D01*
X0744*
X0745Y02348*
Y02387*
X0744Y02397*
X0742*
X0741Y02387*
Y02377*
X0742Y02367*
X0745*
X05983Y0092D02*
Y00979D01*
X06012*
X06022Y00969*
Y00949*
X06012Y00939*
X05983*
X06002D02*
X06022Y0092D01*
X06042Y0091D02*
X06082D01*
X06102Y00979D02*
X06122D01*
X06112*
Y0092*
X06102*
X06122*
X06152D02*
Y00979D01*
X06182*
X06192Y00969*
Y00949*
X06182Y00939*
X06152*
X06172D02*
X06192Y0092D01*
X06252Y00979D02*
X06212D01*
Y0092*
X06252*
X06212Y00949D02*
X06232D01*
X06312Y00979D02*
X06272D01*
Y00949*
X06292*
X06272*
Y0092*
X06332Y0091D02*
X06372D01*
X06392Y00969D02*
X06402Y00979D01*
X06422*
X06432Y00969*
Y0093*
X06422Y0092*
X06402*
X06392Y0093*
Y00969*
X0615Y0424D02*
Y04299D01*
X06179*
X06189Y04289*
Y04269*
X06179Y04259*
X0615*
X06169D02*
X06189Y0424D01*
X06209Y0423D02*
X06249D01*
X06269Y04299D02*
X06289D01*
X06279*
Y0424*
X06269*
X06289*
X06319D02*
Y04299D01*
X06349*
X06359Y04289*
Y04269*
X06349Y04259*
X06319*
X06339D02*
X06359Y0424D01*
X06419Y04299D02*
X06379D01*
Y0424*
X06419*
X06379Y04269D02*
X06399D01*
X06479Y04299D02*
X06439D01*
Y04269*
X06459*
X06439*
Y0424*
X06499Y0423D02*
X06539D01*
X06559Y0424D02*
X06579D01*
X06569*
Y04299*
X06559Y04289*
X0701Y02316D02*
X0695D01*
Y02345*
X0696Y02355*
X0698*
X0699Y02345*
Y02316*
Y02335D02*
X0701Y02355D01*
X0695Y02375D02*
X0701D01*
Y02405*
X07Y02415*
X0699*
X0698Y02405*
Y02375*
Y02405*
X0697Y02415*
X0696*
X0695Y02405*
Y02375*
X0696Y02435D02*
X0695Y02445D01*
Y02465*
X0696Y02475*
X07*
X0701Y02465*
Y02445*
X07Y02435*
X0696*
X0661Y02326D02*
X0655D01*
Y02355*
X0656Y02365*
X0658*
X0659Y02355*
Y02326*
Y02345D02*
X0661Y02365D01*
X0655Y02385D02*
X0661D01*
Y02415*
X066Y02425*
X0659*
X0658Y02415*
Y02385*
Y02415*
X0657Y02425*
X0656*
X0655Y02415*
Y02385*
X0661Y02445D02*
Y02465D01*
Y02455*
X0655*
X0656Y02445*
X06205Y02301D02*
X06145D01*
Y0233*
X06155Y0234*
X06175*
X06185Y0233*
Y02301*
Y0232D02*
X06205Y0234D01*
X06145Y0236D02*
X06205D01*
Y0239*
X06195Y024*
X06185*
X06175Y0239*
Y0236*
Y0239*
X06165Y024*
X06155*
X06145Y0239*
Y0236*
X06205Y0246D02*
Y0242D01*
X06165Y0246*
X06155*
X06145Y0245*
Y0243*
X06155Y0242*
X0581Y02301D02*
X0575D01*
Y0233*
X0576Y0234*
X0578*
X0579Y0233*
Y02301*
Y0232D02*
X0581Y0234D01*
X0575Y0236D02*
X0581D01*
Y0239*
X058Y024*
X0579*
X0578Y0239*
Y0236*
Y0239*
X0577Y024*
X0576*
X0575Y0239*
Y0236*
X0576Y0242D02*
X0575Y0243D01*
Y0245*
X0576Y0246*
X0577*
X0578Y0245*
Y0244*
Y0245*
X0579Y0246*
X058*
X0581Y0245*
Y0243*
X058Y0242*
X05405Y02301D02*
X05345D01*
Y0233*
X05355Y0234*
X05375*
X05385Y0233*
Y02301*
Y0232D02*
X05405Y0234D01*
X05345Y0236D02*
X05405D01*
Y0239*
X05395Y024*
X05385*
X05375Y0239*
Y0236*
Y0239*
X05365Y024*
X05355*
X05345Y0239*
Y0236*
X05405Y0245D02*
X05345D01*
X05375Y0242*
Y0246*
X05705Y03245D02*
X05645D01*
Y03274*
X05655Y03284*
X05675*
X05685Y03274*
Y03245*
Y03264D02*
X05705Y03284D01*
X05645Y03304D02*
X05705D01*
Y03334*
X05695Y03344*
X05685*
X05675Y03334*
Y03304*
Y03334*
X05665Y03344*
X05655*
X05645Y03334*
Y03304*
Y03404D02*
Y03364D01*
X05675*
X05665Y03384*
Y03394*
X05675Y03404*
X05695*
X05705Y03394*
Y03374*
X05695Y03364*
X06105Y03245D02*
X06045D01*
Y03274*
X06055Y03284*
X06075*
X06085Y03274*
Y03245*
Y03264D02*
X06105Y03284D01*
X06045Y03304D02*
X06105D01*
Y03334*
X06095Y03344*
X06085*
X06075Y03334*
Y03304*
Y03334*
X06065Y03344*
X06055*
X06045Y03334*
Y03304*
Y03404D02*
X06055Y03384D01*
X06075Y03364*
X06095*
X06105Y03374*
Y03394*
X06095Y03404*
X06085*
X06075Y03394*
Y03364*
X065Y03245D02*
X0644D01*
Y03274*
X0645Y03284*
X0647*
X0648Y03274*
Y03245*
Y03264D02*
X065Y03284D01*
X0644Y03304D02*
X065D01*
Y03334*
X0649Y03344*
X0648*
X0647Y03334*
Y03304*
Y03334*
X0646Y03344*
X0645*
X0644Y03334*
Y03304*
Y03364D02*
Y03404D01*
X0645*
X0649Y03364*
X065*
X06905Y03245D02*
X06845D01*
Y03274*
X06855Y03284*
X06875*
X06885Y03274*
Y03245*
Y03264D02*
X06905Y03284D01*
X06845Y03304D02*
X06905D01*
Y03334*
X06895Y03344*
X06885*
X06875Y03334*
Y03304*
Y03334*
X06865Y03344*
X06855*
X06845Y03334*
Y03304*
X06855Y03364D02*
X06845Y03374D01*
Y03394*
X06855Y03404*
X06865*
X06875Y03394*
X06885Y03404*
X06895*
X06905Y03394*
Y03374*
X06895Y03364*
X06885*
X06875Y03374*
X06865Y03364*
X06855*
X06875Y03374D02*
Y03394D01*
X07305Y03245D02*
X07245D01*
Y03274*
X07255Y03284*
X07275*
X07285Y03274*
Y03245*
Y03264D02*
X07305Y03284D01*
X07245Y03304D02*
X07305D01*
Y03334*
X07295Y03344*
X07285*
X07275Y03334*
Y03304*
Y03334*
X07265Y03344*
X07255*
X07245Y03334*
Y03304*
X07295Y03364D02*
X07305Y03374D01*
Y03394*
X07295Y03404*
X07255*
X07245Y03394*
Y03374*
X07255Y03364*
X07265*
X07275Y03374*
Y03404*
X07115Y02316D02*
X07055D01*
Y02345*
X07065Y02355*
X07085*
X07095Y02345*
Y02316*
Y02335D02*
X07115Y02355D01*
X07065Y02415D02*
X07055Y02405D01*
Y02385*
X07065Y02375*
X07105*
X07115Y02385*
Y02405*
X07105Y02415*
X07085*
Y02395*
X07065Y02435D02*
X07055Y02445D01*
Y02465*
X07065Y02475*
X07105*
X07115Y02465*
Y02445*
X07105Y02435*
X07065*
X0671Y02326D02*
X0665D01*
Y02355*
X0666Y02365*
X0668*
X0669Y02355*
Y02326*
Y02345D02*
X0671Y02365D01*
X0666Y02425D02*
X0665Y02415D01*
Y02395*
X0666Y02385*
X067*
X0671Y02395*
Y02415*
X067Y02425*
X0668*
Y02405*
X0671Y02445D02*
Y02465D01*
Y02455*
X0665*
X0666Y02445*
X06305Y02301D02*
X06245D01*
Y0233*
X06255Y0234*
X06275*
X06285Y0233*
Y02301*
Y0232D02*
X06305Y0234D01*
X06255Y024D02*
X06245Y0239D01*
Y0237*
X06255Y0236*
X06295*
X06305Y0237*
Y0239*
X06295Y024*
X06275*
Y0238*
X06305Y0246D02*
Y0242D01*
X06265Y0246*
X06255*
X06245Y0245*
Y0243*
X06255Y0242*
X0591Y02306D02*
X0585D01*
Y02335*
X0586Y02345*
X0588*
X0589Y02335*
Y02306*
Y02325D02*
X0591Y02345D01*
X0586Y02405D02*
X0585Y02395D01*
Y02375*
X0586Y02365*
X059*
X0591Y02375*
Y02395*
X059Y02405*
X0588*
Y02385*
X0586Y02425D02*
X0585Y02435D01*
Y02455*
X0586Y02465*
X0587*
X0588Y02455*
Y02445*
Y02455*
X0589Y02465*
X059*
X0591Y02455*
Y02435*
X059Y02425*
X055Y02301D02*
X0544D01*
Y0233*
X0545Y0234*
X0547*
X0548Y0233*
Y02301*
Y0232D02*
X055Y0234D01*
X0545Y024D02*
X0544Y0239D01*
Y0237*
X0545Y0236*
X0549*
X055Y0237*
Y0239*
X0549Y024*
X0547*
Y0238*
X055Y0245D02*
X0544D01*
X0547Y0242*
Y0246*
X056Y03245D02*
X0554D01*
Y03274*
X0555Y03284*
X0557*
X0558Y03274*
Y03245*
Y03264D02*
X056Y03284D01*
X0555Y03344D02*
X0554Y03334D01*
Y03314*
X0555Y03304*
X0559*
X056Y03314*
Y03334*
X0559Y03344*
X0557*
Y03324*
X0554Y03404D02*
Y03364D01*
X0557*
X0556Y03384*
Y03394*
X0557Y03404*
X0559*
X056Y03394*
Y03374*
X0559Y03364*
X06005Y03245D02*
X05945D01*
Y03274*
X05955Y03284*
X05975*
X05985Y03274*
Y03245*
Y03264D02*
X06005Y03284D01*
X05955Y03344D02*
X05945Y03334D01*
Y03314*
X05955Y03304*
X05995*
X06005Y03314*
Y03334*
X05995Y03344*
X05975*
Y03324*
X05945Y03404D02*
X05955Y03384D01*
X05975Y03364*
X05995*
X06005Y03374*
Y03394*
X05995Y03404*
X05985*
X05975Y03394*
Y03364*
X06405Y03245D02*
X06345D01*
Y03274*
X06355Y03284*
X06375*
X06385Y03274*
Y03245*
Y03264D02*
X06405Y03284D01*
X06355Y03344D02*
X06345Y03334D01*
Y03314*
X06355Y03304*
X06395*
X06405Y03314*
Y03334*
X06395Y03344*
X06375*
Y03324*
X06345Y03364D02*
Y03404D01*
X06355*
X06395Y03364*
X06405*
X068Y03245D02*
X0674D01*
Y03274*
X0675Y03284*
X0677*
X0678Y03274*
Y03245*
Y03264D02*
X068Y03284D01*
X0675Y03344D02*
X0674Y03334D01*
Y03314*
X0675Y03304*
X0679*
X068Y03314*
Y03334*
X0679Y03344*
X0677*
Y03324*
X0675Y03364D02*
X0674Y03374D01*
Y03394*
X0675Y03404*
X0676*
X0677Y03394*
X0678Y03404*
X0679*
X068Y03394*
Y03374*
X0679Y03364*
X0678*
X0677Y03374*
X0676Y03364*
X0675*
X0677Y03374D02*
Y03394D01*
X07205Y03245D02*
X07145D01*
Y03274*
X07155Y03284*
X07175*
X07185Y03274*
Y03245*
Y03264D02*
X07205Y03284D01*
X07155Y03344D02*
X07145Y03334D01*
Y03314*
X07155Y03304*
X07195*
X07205Y03314*
Y03334*
X07195Y03344*
X07175*
Y03324*
X07195Y03364D02*
X07205Y03374D01*
Y03394*
X07195Y03404*
X07155*
X07145Y03394*
Y03374*
X07155Y03364*
X07165*
X07175Y03374*
Y03404*
X0721Y02321D02*
X0715D01*
Y0235*
X0716Y0236*
X0718*
X0719Y0235*
Y02321*
Y0234D02*
X0721Y0236D01*
Y0238D02*
X0715D01*
Y0241*
X0716Y0242*
X0718*
X0719Y0241*
Y0238*
Y024D02*
X0721Y0242D01*
X0716Y0244D02*
X0715Y0245D01*
Y0247*
X0716Y0248*
X072*
X0721Y0247*
Y0245*
X072Y0244*
X0716*
X06805Y02321D02*
X06745D01*
Y0235*
X06755Y0236*
X06775*
X06785Y0235*
Y02321*
Y0234D02*
X06805Y0236D01*
Y0238D02*
X06745D01*
Y0241*
X06755Y0242*
X06775*
X06785Y0241*
Y0238*
Y024D02*
X06805Y0242D01*
Y0244D02*
Y0246D01*
Y0245*
X06745*
X06755Y0244*
X06405Y02301D02*
X06345D01*
Y0233*
X06355Y0234*
X06375*
X06385Y0233*
Y02301*
Y0232D02*
X06405Y0234D01*
Y0236D02*
X06345D01*
Y0239*
X06355Y024*
X06375*
X06385Y0239*
Y0236*
Y0238D02*
X06405Y024D01*
Y0246D02*
Y0242D01*
X06365Y0246*
X06355*
X06345Y0245*
Y0243*
X06355Y0242*
X0601Y02301D02*
X0595D01*
Y0233*
X0596Y0234*
X0598*
X0599Y0233*
Y02301*
Y0232D02*
X0601Y0234D01*
Y0236D02*
X0595D01*
Y0239*
X0596Y024*
X0598*
X0599Y0239*
Y0236*
Y0238D02*
X0601Y024D01*
X0596Y0242D02*
X0595Y0243D01*
Y0245*
X0596Y0246*
X0597*
X0598Y0245*
Y0244*
Y0245*
X0599Y0246*
X06*
X0601Y0245*
Y0243*
X06Y0242*
X05605Y02301D02*
X05545D01*
Y0233*
X05555Y0234*
X05575*
X05585Y0233*
Y02301*
Y0232D02*
X05605Y0234D01*
Y0236D02*
X05545D01*
Y0239*
X05555Y024*
X05575*
X05585Y0239*
Y0236*
Y0238D02*
X05605Y024D01*
Y0245D02*
X05545D01*
X05575Y0242*
Y0246*
X055Y03245D02*
X0544D01*
Y03274*
X0545Y03284*
X0547*
X0548Y03274*
Y03245*
Y03264D02*
X055Y03284D01*
Y03304D02*
X0544D01*
Y03334*
X0545Y03344*
X0547*
X0548Y03334*
Y03304*
Y03324D02*
X055Y03344D01*
X0544Y03404D02*
Y03364D01*
X0547*
X0546Y03384*
Y03394*
X0547Y03404*
X0549*
X055Y03394*
Y03374*
X0549Y03364*
X05905Y03245D02*
X05845D01*
Y03274*
X05855Y03284*
X05875*
X05885Y03274*
Y03245*
Y03264D02*
X05905Y03284D01*
Y03304D02*
X05845D01*
Y03334*
X05855Y03344*
X05875*
X05885Y03334*
Y03304*
Y03324D02*
X05905Y03344D01*
X05845Y03404D02*
X05855Y03384D01*
X05875Y03364*
X05895*
X05905Y03374*
Y03394*
X05895Y03404*
X05885*
X05875Y03394*
Y03364*
X063Y03245D02*
X0624D01*
Y03274*
X0625Y03284*
X0627*
X0628Y03274*
Y03245*
Y03264D02*
X063Y03284D01*
Y03304D02*
X0624D01*
Y03334*
X0625Y03344*
X0627*
X0628Y03334*
Y03304*
Y03324D02*
X063Y03344D01*
X0624Y03364D02*
Y03404D01*
X0625*
X0629Y03364*
X063*
X06705Y03245D02*
X06645D01*
Y03274*
X06655Y03284*
X06675*
X06685Y03274*
Y03245*
Y03264D02*
X06705Y03284D01*
Y03304D02*
X06645D01*
Y03334*
X06655Y03344*
X06675*
X06685Y03334*
Y03304*
Y03324D02*
X06705Y03344D01*
X06655Y03364D02*
X06645Y03374D01*
Y03394*
X06655Y03404*
X06665*
X06675Y03394*
X06685Y03404*
X06695*
X06705Y03394*
Y03374*
X06695Y03364*
X06685*
X06675Y03374*
X06665Y03364*
X06655*
X06675Y03374D02*
Y03394D01*
X07105Y03245D02*
X07045D01*
Y03274*
X07055Y03284*
X07075*
X07085Y03274*
Y03245*
Y03264D02*
X07105Y03284D01*
Y03304D02*
X07045D01*
Y03334*
X07055Y03344*
X07075*
X07085Y03334*
Y03304*
Y03324D02*
X07105Y03344D01*
X07095Y03364D02*
X07105Y03374D01*
Y03394*
X07095Y03404*
X07055*
X07045Y03394*
Y03374*
X07055Y03364*
X07065*
X07075Y03374*
Y03404*
X05498Y04038D02*
X05537D01*
X05517*
Y03979*
X05557Y04038D02*
Y03979D01*
X05597*
X05657Y04028D02*
X05647Y04038D01*
X05627*
X05617Y04028*
Y03989*
X05627Y03979*
X05647*
X05657Y03989*
X05717Y04038D02*
X05677D01*
Y04008*
X05697Y04018*
X05707*
X05717Y04008*
Y03989*
X05707Y03979*
X05687*
X05677Y03989*
X05737D02*
X05747Y03979D01*
X05767*
X05777Y03989*
Y04028*
X05767Y04038*
X05747*
X05737Y04028*
Y04018*
X05747Y04008*
X05777*
X05827Y03979D02*
Y04038D01*
X05797Y04008*
X05837*
X05857Y04028D02*
X05867Y04038D01*
X05887*
X05897Y04028*
Y03989*
X05887Y03979*
X05867*
X05857Y03989*
Y04028*
X05917Y03969D02*
X05957D01*
X05977Y03979D02*
X05997D01*
X05987*
Y04038*
X05977Y04028*
G54D24*
X09195Y03465D02*
Y03448D01*
Y03456*
X09244*
X09236Y03465*
X09244Y03423D02*
Y0339D01*
X09236*
X09203Y03423*
X09195*
X09095Y03425D02*
Y03408D01*
Y03416*
X09144*
X09136Y03425*
X09095Y01766D02*
Y01749D01*
Y01757*
X09144*
X09136Y01766*
X09144Y01691D02*
X09136Y01707D01*
X09119Y01724*
X09103*
X09095Y01716*
Y01699*
X09103Y01691*
X09111*
X09119Y01699*
Y01724*
X09236Y01766D02*
X09244Y01757D01*
Y01741*
X09236Y01732*
X09228*
X09219Y01741*
Y01749*
Y01741*
X09211Y01732*
X09203*
X09195Y01741*
Y01757*
X09203Y01766*
X09195Y01682D02*
Y01716D01*
X09228Y01682*
X09236*
X09244Y01691*
Y01707*
X09236Y01716*
X08388Y02729D02*
X08371Y02721D01*
X08355Y02704*
Y02688*
X08363Y0268*
X08379*
X08388Y02688*
Y02696*
X08379Y02704*
X08355*
X08404Y02721D02*
X08413Y02729D01*
X08429*
X08438Y02721*
Y02688*
X08429Y0268*
X08413*
X08404Y02688*
Y02721*
X08388Y02629D02*
X08355D01*
Y02604*
X08371Y02613*
X08379*
X08388Y02604*
Y02588*
X08379Y0258*
X08363*
X08355Y02588*
X08404D02*
X08413Y0258D01*
X08429*
X08438Y02588*
Y02621*
X08429Y02629*
X08413*
X08404Y02621*
Y02613*
X08413Y02604*
X08438*
X05275Y0258D02*
X05291D01*
X05283*
Y02629*
X05275Y02621*
X05308Y0268D02*
X05275D01*
X05308Y02713*
Y02721*
X05299Y02729*
X05283*
X05275Y02721*
M02*