%FSTAX23Y23*%
%MOIN*%
%SFA1B1*%

%IPPOS*%
%ADD21C,0.007870*%
%ADD35C,0.006670*%
%LNtlc5940controlboard-1*%
%LPD*%
G54D21*
X0608Y0468D02*
Y0472D01*
X0612*
Y0468*
X0608*
Y0478D02*
Y0482D01*
X0612*
Y0478*
X0608*
Y0488D02*
Y0492D01*
X0612*
Y0488*
X0608*
Y0498D02*
Y0502D01*
X0612*
Y0498*
X0608*
Y0508D02*
Y0512D01*
X0612*
Y0508*
X0608*
Y0518D02*
Y0522D01*
X0612*
Y0518*
X0608*
Y0528D02*
Y0532D01*
X0612*
Y0528*
X0608*
Y0538D02*
Y0542D01*
X0612*
Y0538*
X0608*
Y0548D02*
Y0552D01*
X0612*
Y0548*
X0608*
Y0558D02*
Y0562D01*
X0612*
Y0558*
X0608*
Y0568D02*
Y0572D01*
X0612*
Y0568*
X0608*
Y0578D02*
Y0582D01*
X0612*
Y0578*
X0608*
Y0588D02*
Y0592D01*
X0612*
Y0588*
X0608*
Y0598D02*
Y0602D01*
X0612*
Y0598*
X0608*
Y0608D02*
Y0612D01*
X0612*
Y0608*
X0608*
Y0618D02*
Y0622D01*
X0612*
Y0618*
X0608*
X0598Y0468D02*
Y0472D01*
X0602*
Y0468*
X0598*
Y0478D02*
Y0482D01*
X0602*
Y0478*
X0598*
Y0488D02*
Y0492D01*
X0602*
Y0488*
X0598*
Y0498D02*
Y0502D01*
X0602*
Y0498*
X0598*
Y0508D02*
Y0512D01*
X0602*
Y0508*
X0598*
Y0518D02*
Y0522D01*
X0602*
Y0518*
X0598*
Y0528D02*
Y0532D01*
X0602*
Y0528*
X0598*
Y0538D02*
Y0542D01*
X0602*
Y0538*
X0598*
Y0548D02*
Y0552D01*
X0602*
Y0548*
X0598*
Y0558D02*
Y0562D01*
X0602*
Y0558*
X0598*
Y0568D02*
Y0572D01*
X0602*
Y0568*
X0598*
Y0578D02*
Y0582D01*
X0602*
Y0578*
X0598*
Y0588D02*
Y0592D01*
X0602*
Y0588*
X0598*
Y0598D02*
Y0602D01*
X0602*
Y0598*
X0598*
Y0608D02*
Y0612D01*
X0602*
Y0608*
X0598*
Y0618D02*
Y0622D01*
X0602*
Y0618*
X0598*
X03675Y04305D02*
Y04345D01*
X03715*
Y04305*
X03675*
X03575D02*
Y04345D01*
X03615*
Y04305*
X03575*
X03475D02*
Y04345D01*
X03515*
Y04305*
X03475*
X03375D02*
Y04345D01*
X03415*
Y04305*
X03375*
X03275D02*
Y04345D01*
X03315*
Y04305*
X03275*
X03175D02*
Y04345D01*
X03215*
Y04305*
X03175*
X03075D02*
Y04345D01*
X03115*
Y04305*
X03075*
X02975D02*
Y04345D01*
X03015*
Y04305*
X02975*
X02875D02*
Y04345D01*
X02915*
Y04305*
X02875*
X02775D02*
Y04345D01*
X02815*
Y04305*
X02775*
X02675D02*
Y04345D01*
X02715*
Y04305*
X02675*
X02575D02*
Y04345D01*
X02615*
Y04305*
X02575*
X02475D02*
Y04345D01*
X02515*
Y04305*
X02475*
X02375D02*
Y04345D01*
X02415*
Y04305*
X02375*
X03675Y04005D02*
Y04045D01*
X03715*
Y04005*
X03675*
X03575D02*
Y04045D01*
X03615*
Y04005*
X03575*
X03475D02*
Y04045D01*
X03515*
Y04005*
X03475*
X03375D02*
Y04045D01*
X03415*
Y04005*
X03375*
X03275D02*
Y04045D01*
X03315*
Y04005*
X03275*
X03175D02*
Y04045D01*
X03215*
Y04005*
X03175*
X03075D02*
Y04045D01*
X03115*
Y04005*
X03075*
X02975D02*
Y04045D01*
X03015*
Y04005*
X02975*
X02875D02*
Y04045D01*
X02915*
Y04005*
X02875*
X02775D02*
Y04045D01*
X02815*
Y04005*
X02775*
X02675D02*
Y04045D01*
X02715*
Y04005*
X02675*
X02575D02*
Y04045D01*
X02615*
Y04005*
X02575*
X02475D02*
Y04045D01*
X02515*
Y04005*
X02475*
X02375D02*
Y04045D01*
X02415*
Y04005*
X02375*
G54D35*
X0516Y0655D02*
D01*
X05159Y06551*
X05159Y06552*
X05159Y06554*
X05159Y06555*
X05158Y06556*
X05158Y06558*
X05157Y06559*
X05156Y0656*
X05156Y06561*
X05155Y06562*
X05154Y06563*
X05153Y06564*
X05152Y06565*
X05151Y06566*
X0515Y06567*
X05148Y06567*
X05147Y06568*
X05146Y06569*
X05144Y06569*
X05143Y06569*
X05142Y06569*
X0514Y06569*
X05139*
X05137Y06569*
X05136Y06569*
X05135Y06569*
X05133Y06569*
X05132Y06568*
X05131Y06567*
X0513Y06567*
X05128Y06566*
X05127Y06565*
X05126Y06564*
X05125Y06563*
X05124Y06562*
X05123Y06561*
X05123Y0656*
X05122Y06559*
X05121Y06558*
X05121Y06556*
X0512Y06555*
X0512Y06554*
X0512Y06552*
X0512Y06551*
X0512Y0655*
X0512Y06548*
X0512Y06547*
X0512Y06545*
X0512Y06544*
X05121Y06543*
X05121Y06541*
X05122Y0654*
X05123Y06539*
X05123Y06538*
X05124Y06537*
X05125Y06536*
X05126Y06535*
X05127Y06534*
X05128Y06533*
X0513Y06532*
X05131Y06532*
X05132Y06531*
X05133Y0653*
X05135Y0653*
X05136Y0653*
X05137Y0653*
X05139Y0653*
X0514*
X05142Y0653*
X05143Y0653*
X05144Y0653*
X05146Y0653*
X05147Y06531*
X05148Y06532*
X0515Y06532*
X05151Y06533*
X05152Y06534*
X05153Y06535*
X05154Y06536*
X05155Y06537*
X05156Y06538*
X05156Y06539*
X05157Y0654*
X05158Y06541*
X05158Y06543*
X05159Y06544*
X05159Y06545*
X05159Y06547*
X05159Y06548*
X0516Y0655*
Y0665D02*
D01*
X05159Y06651*
X05159Y06652*
X05159Y06654*
X05159Y06655*
X05158Y06656*
X05158Y06658*
X05157Y06659*
X05156Y0666*
X05156Y06661*
X05155Y06662*
X05154Y06663*
X05153Y06664*
X05152Y06665*
X05151Y06666*
X0515Y06667*
X05148Y06667*
X05147Y06668*
X05146Y06669*
X05144Y06669*
X05143Y06669*
X05142Y06669*
X0514Y06669*
X05139*
X05137Y06669*
X05136Y06669*
X05135Y06669*
X05133Y06669*
X05132Y06668*
X05131Y06667*
X0513Y06667*
X05128Y06666*
X05127Y06665*
X05126Y06664*
X05125Y06663*
X05124Y06662*
X05123Y06661*
X05123Y0666*
X05122Y06659*
X05121Y06658*
X05121Y06656*
X0512Y06655*
X0512Y06654*
X0512Y06652*
X0512Y06651*
X0512Y0665*
X0512Y06648*
X0512Y06647*
X0512Y06645*
X0512Y06644*
X05121Y06643*
X05121Y06641*
X05122Y0664*
X05123Y06639*
X05123Y06638*
X05124Y06637*
X05125Y06636*
X05126Y06635*
X05127Y06634*
X05128Y06633*
X0513Y06632*
X05131Y06632*
X05132Y06631*
X05133Y0663*
X05135Y0663*
X05136Y0663*
X05137Y0663*
X05139Y0663*
X0514*
X05142Y0663*
X05143Y0663*
X05144Y0663*
X05146Y0663*
X05147Y06631*
X05148Y06632*
X0515Y06632*
X05151Y06633*
X05152Y06634*
X05153Y06635*
X05154Y06636*
X05155Y06637*
X05156Y06638*
X05156Y06639*
X05157Y0664*
X05158Y06641*
X05158Y06643*
X05159Y06644*
X05159Y06645*
X05159Y06647*
X05159Y06648*
X0516Y0665*
X0498Y0655D02*
D01*
X04979Y06551*
X04979Y06552*
X04979Y06554*
X04979Y06555*
X04978Y06556*
X04978Y06558*
X04977Y06559*
X04976Y0656*
X04976Y06561*
X04975Y06562*
X04974Y06563*
X04973Y06564*
X04972Y06565*
X04971Y06566*
X0497Y06567*
X04968Y06567*
X04967Y06568*
X04966Y06569*
X04964Y06569*
X04963Y06569*
X04962Y06569*
X0496Y06569*
X04959*
X04957Y06569*
X04956Y06569*
X04955Y06569*
X04953Y06569*
X04952Y06568*
X04951Y06567*
X0495Y06567*
X04948Y06566*
X04947Y06565*
X04946Y06564*
X04945Y06563*
X04944Y06562*
X04943Y06561*
X04943Y0656*
X04942Y06559*
X04941Y06558*
X04941Y06556*
X0494Y06555*
X0494Y06554*
X0494Y06552*
X0494Y06551*
X0494Y0655*
X0494Y06548*
X0494Y06547*
X0494Y06545*
X0494Y06544*
X04941Y06543*
X04941Y06541*
X04942Y0654*
X04943Y06539*
X04943Y06538*
X04944Y06537*
X04945Y06536*
X04946Y06535*
X04947Y06534*
X04948Y06533*
X0495Y06532*
X04951Y06532*
X04952Y06531*
X04953Y0653*
X04955Y0653*
X04956Y0653*
X04957Y0653*
X04959Y0653*
X0496*
X04962Y0653*
X04963Y0653*
X04964Y0653*
X04966Y0653*
X04967Y06531*
X04968Y06532*
X0497Y06532*
X04971Y06533*
X04972Y06534*
X04973Y06535*
X04974Y06536*
X04975Y06537*
X04976Y06538*
X04976Y06539*
X04977Y0654*
X04978Y06541*
X04978Y06543*
X04979Y06544*
X04979Y06545*
X04979Y06547*
X04979Y06548*
X0498Y0655*
Y0665D02*
D01*
X04979Y06651*
X04979Y06652*
X04979Y06654*
X04979Y06655*
X04978Y06656*
X04978Y06658*
X04977Y06659*
X04976Y0666*
X04976Y06661*
X04975Y06662*
X04974Y06663*
X04973Y06664*
X04972Y06665*
X04971Y06666*
X0497Y06667*
X04968Y06667*
X04967Y06668*
X04966Y06669*
X04964Y06669*
X04963Y06669*
X04962Y06669*
X0496Y06669*
X04959*
X04957Y06669*
X04956Y06669*
X04955Y06669*
X04953Y06669*
X04952Y06668*
X04951Y06667*
X0495Y06667*
X04948Y06666*
X04947Y06665*
X04946Y06664*
X04945Y06663*
X04944Y06662*
X04943Y06661*
X04943Y0666*
X04942Y06659*
X04941Y06658*
X04941Y06656*
X0494Y06655*
X0494Y06654*
X0494Y06652*
X0494Y06651*
X0494Y0665*
X0494Y06648*
X0494Y06647*
X0494Y06645*
X0494Y06644*
X04941Y06643*
X04941Y06641*
X04942Y0664*
X04943Y06639*
X04943Y06638*
X04944Y06637*
X04945Y06636*
X04946Y06635*
X04947Y06634*
X04948Y06633*
X0495Y06632*
X04951Y06632*
X04952Y06631*
X04953Y0663*
X04955Y0663*
X04956Y0663*
X04957Y0663*
X04959Y0663*
X0496*
X04962Y0663*
X04963Y0663*
X04964Y0663*
X04966Y0663*
X04967Y06631*
X04968Y06632*
X0497Y06632*
X04971Y06633*
X04972Y06634*
X04973Y06635*
X04974Y06636*
X04975Y06637*
X04976Y06638*
X04976Y06639*
X04977Y0664*
X04978Y06641*
X04978Y06643*
X04979Y06644*
X04979Y06645*
X04979Y06647*
X04979Y06648*
X0498Y0665*
X0478Y0655D02*
D01*
X04779Y06551*
X04779Y06552*
X04779Y06554*
X04779Y06555*
X04778Y06556*
X04778Y06558*
X04777Y06559*
X04776Y0656*
X04776Y06561*
X04775Y06562*
X04774Y06563*
X04773Y06564*
X04772Y06565*
X04771Y06566*
X0477Y06567*
X04768Y06567*
X04767Y06568*
X04766Y06569*
X04764Y06569*
X04763Y06569*
X04762Y06569*
X0476Y06569*
X04759*
X04757Y06569*
X04756Y06569*
X04755Y06569*
X04753Y06569*
X04752Y06568*
X04751Y06567*
X0475Y06567*
X04748Y06566*
X04747Y06565*
X04746Y06564*
X04745Y06563*
X04744Y06562*
X04743Y06561*
X04743Y0656*
X04742Y06559*
X04741Y06558*
X04741Y06556*
X0474Y06555*
X0474Y06554*
X0474Y06552*
X0474Y06551*
X0474Y0655*
X0474Y06548*
X0474Y06547*
X0474Y06545*
X0474Y06544*
X04741Y06543*
X04741Y06541*
X04742Y0654*
X04743Y06539*
X04743Y06538*
X04744Y06537*
X04745Y06536*
X04746Y06535*
X04747Y06534*
X04748Y06533*
X0475Y06532*
X04751Y06532*
X04752Y06531*
X04753Y0653*
X04755Y0653*
X04756Y0653*
X04757Y0653*
X04759Y0653*
X0476*
X04762Y0653*
X04763Y0653*
X04764Y0653*
X04766Y0653*
X04767Y06531*
X04768Y06532*
X0477Y06532*
X04771Y06533*
X04772Y06534*
X04773Y06535*
X04774Y06536*
X04775Y06537*
X04776Y06538*
X04776Y06539*
X04777Y0654*
X04778Y06541*
X04778Y06543*
X04779Y06544*
X04779Y06545*
X04779Y06547*
X04779Y06548*
X0478Y0655*
Y0665D02*
D01*
X04779Y06651*
X04779Y06652*
X04779Y06654*
X04779Y06655*
X04778Y06656*
X04778Y06658*
X04777Y06659*
X04776Y0666*
X04776Y06661*
X04775Y06662*
X04774Y06663*
X04773Y06664*
X04772Y06665*
X04771Y06666*
X0477Y06667*
X04768Y06667*
X04767Y06668*
X04766Y06669*
X04764Y06669*
X04763Y06669*
X04762Y06669*
X0476Y06669*
X04759*
X04757Y06669*
X04756Y06669*
X04755Y06669*
X04753Y06669*
X04752Y06668*
X04751Y06667*
X0475Y06667*
X04748Y06666*
X04747Y06665*
X04746Y06664*
X04745Y06663*
X04744Y06662*
X04743Y06661*
X04743Y0666*
X04742Y06659*
X04741Y06658*
X04741Y06656*
X0474Y06655*
X0474Y06654*
X0474Y06652*
X0474Y06651*
X0474Y0665*
X0474Y06648*
X0474Y06647*
X0474Y06645*
X0474Y06644*
X04741Y06643*
X04741Y06641*
X04742Y0664*
X04743Y06639*
X04743Y06638*
X04744Y06637*
X04745Y06636*
X04746Y06635*
X04747Y06634*
X04748Y06633*
X0475Y06632*
X04751Y06632*
X04752Y06631*
X04753Y0663*
X04755Y0663*
X04756Y0663*
X04757Y0663*
X04759Y0663*
X0476*
X04762Y0663*
X04763Y0663*
X04764Y0663*
X04766Y0663*
X04767Y06631*
X04768Y06632*
X0477Y06632*
X04771Y06633*
X04772Y06634*
X04773Y06635*
X04774Y06636*
X04775Y06637*
X04776Y06638*
X04776Y06639*
X04777Y0664*
X04778Y06641*
X04778Y06643*
X04779Y06644*
X04779Y06645*
X04779Y06647*
X04779Y06648*
X0478Y0665*
X0458Y0655D02*
D01*
X04579Y06551*
X04579Y06552*
X04579Y06554*
X04579Y06555*
X04578Y06556*
X04578Y06558*
X04577Y06559*
X04576Y0656*
X04576Y06561*
X04575Y06562*
X04574Y06563*
X04573Y06564*
X04572Y06565*
X04571Y06566*
X0457Y06567*
X04568Y06567*
X04567Y06568*
X04566Y06569*
X04564Y06569*
X04563Y06569*
X04562Y06569*
X0456Y06569*
X04559*
X04557Y06569*
X04556Y06569*
X04555Y06569*
X04553Y06569*
X04552Y06568*
X04551Y06567*
X0455Y06567*
X04548Y06566*
X04547Y06565*
X04546Y06564*
X04545Y06563*
X04544Y06562*
X04543Y06561*
X04543Y0656*
X04542Y06559*
X04541Y06558*
X04541Y06556*
X0454Y06555*
X0454Y06554*
X0454Y06552*
X0454Y06551*
X0454Y0655*
X0454Y06548*
X0454Y06547*
X0454Y06545*
X0454Y06544*
X04541Y06543*
X04541Y06541*
X04542Y0654*
X04543Y06539*
X04543Y06538*
X04544Y06537*
X04545Y06536*
X04546Y06535*
X04547Y06534*
X04548Y06533*
X0455Y06532*
X04551Y06532*
X04552Y06531*
X04553Y0653*
X04555Y0653*
X04556Y0653*
X04557Y0653*
X04559Y0653*
X0456*
X04562Y0653*
X04563Y0653*
X04564Y0653*
X04566Y0653*
X04567Y06531*
X04568Y06532*
X0457Y06532*
X04571Y06533*
X04572Y06534*
X04573Y06535*
X04574Y06536*
X04575Y06537*
X04576Y06538*
X04576Y06539*
X04577Y0654*
X04578Y06541*
X04578Y06543*
X04579Y06544*
X04579Y06545*
X04579Y06547*
X04579Y06548*
X0458Y0655*
Y0665D02*
D01*
X04579Y06651*
X04579Y06652*
X04579Y06654*
X04579Y06655*
X04578Y06656*
X04578Y06658*
X04577Y06659*
X04576Y0666*
X04576Y06661*
X04575Y06662*
X04574Y06663*
X04573Y06664*
X04572Y06665*
X04571Y06666*
X0457Y06667*
X04568Y06667*
X04567Y06668*
X04566Y06669*
X04564Y06669*
X04563Y06669*
X04562Y06669*
X0456Y06669*
X04559*
X04557Y06669*
X04556Y06669*
X04555Y06669*
X04553Y06669*
X04552Y06668*
X04551Y06667*
X0455Y06667*
X04548Y06666*
X04547Y06665*
X04546Y06664*
X04545Y06663*
X04544Y06662*
X04543Y06661*
X04543Y0666*
X04542Y06659*
X04541Y06658*
X04541Y06656*
X0454Y06655*
X0454Y06654*
X0454Y06652*
X0454Y06651*
X0454Y0665*
X0454Y06648*
X0454Y06647*
X0454Y06645*
X0454Y06644*
X04541Y06643*
X04541Y06641*
X04542Y0664*
X04543Y06639*
X04543Y06638*
X04544Y06637*
X04545Y06636*
X04546Y06635*
X04547Y06634*
X04548Y06633*
X0455Y06632*
X04551Y06632*
X04552Y06631*
X04553Y0663*
X04555Y0663*
X04556Y0663*
X04557Y0663*
X04559Y0663*
X0456*
X04562Y0663*
X04563Y0663*
X04564Y0663*
X04566Y0663*
X04567Y06631*
X04568Y06632*
X0457Y06632*
X04571Y06633*
X04572Y06634*
X04573Y06635*
X04574Y06636*
X04575Y06637*
X04576Y06638*
X04576Y06639*
X04577Y0664*
X04578Y06641*
X04578Y06643*
X04579Y06644*
X04579Y06645*
X04579Y06647*
X04579Y06648*
X0458Y0665*
X0438Y0655D02*
D01*
X04379Y06551*
X04379Y06552*
X04379Y06554*
X04379Y06555*
X04378Y06556*
X04378Y06558*
X04377Y06559*
X04376Y0656*
X04376Y06561*
X04375Y06562*
X04374Y06563*
X04373Y06564*
X04372Y06565*
X04371Y06566*
X0437Y06567*
X04368Y06567*
X04367Y06568*
X04366Y06569*
X04364Y06569*
X04363Y06569*
X04362Y06569*
X0436Y06569*
X04359*
X04357Y06569*
X04356Y06569*
X04355Y06569*
X04353Y06569*
X04352Y06568*
X04351Y06567*
X0435Y06567*
X04348Y06566*
X04347Y06565*
X04346Y06564*
X04345Y06563*
X04344Y06562*
X04343Y06561*
X04343Y0656*
X04342Y06559*
X04341Y06558*
X04341Y06556*
X0434Y06555*
X0434Y06554*
X0434Y06552*
X0434Y06551*
X0434Y0655*
X0434Y06548*
X0434Y06547*
X0434Y06545*
X0434Y06544*
X04341Y06543*
X04341Y06541*
X04342Y0654*
X04343Y06539*
X04343Y06538*
X04344Y06537*
X04345Y06536*
X04346Y06535*
X04347Y06534*
X04348Y06533*
X0435Y06532*
X04351Y06532*
X04352Y06531*
X04353Y0653*
X04355Y0653*
X04356Y0653*
X04357Y0653*
X04359Y0653*
X0436*
X04362Y0653*
X04363Y0653*
X04364Y0653*
X04366Y0653*
X04367Y06531*
X04368Y06532*
X0437Y06532*
X04371Y06533*
X04372Y06534*
X04373Y06535*
X04374Y06536*
X04375Y06537*
X04376Y06538*
X04376Y06539*
X04377Y0654*
X04378Y06541*
X04378Y06543*
X04379Y06544*
X04379Y06545*
X04379Y06547*
X04379Y06548*
X0438Y0655*
Y0665D02*
D01*
X04379Y06651*
X04379Y06652*
X04379Y06654*
X04379Y06655*
X04378Y06656*
X04378Y06658*
X04377Y06659*
X04376Y0666*
X04376Y06661*
X04375Y06662*
X04374Y06663*
X04373Y06664*
X04372Y06665*
X04371Y06666*
X0437Y06667*
X04368Y06667*
X04367Y06668*
X04366Y06669*
X04364Y06669*
X04363Y06669*
X04362Y06669*
X0436Y06669*
X04359*
X04357Y06669*
X04356Y06669*
X04355Y06669*
X04353Y06669*
X04352Y06668*
X04351Y06667*
X0435Y06667*
X04348Y06666*
X04347Y06665*
X04346Y06664*
X04345Y06663*
X04344Y06662*
X04343Y06661*
X04343Y0666*
X04342Y06659*
X04341Y06658*
X04341Y06656*
X0434Y06655*
X0434Y06654*
X0434Y06652*
X0434Y06651*
X0434Y0665*
X0434Y06648*
X0434Y06647*
X0434Y06645*
X0434Y06644*
X04341Y06643*
X04341Y06641*
X04342Y0664*
X04343Y06639*
X04343Y06638*
X04344Y06637*
X04345Y06636*
X04346Y06635*
X04347Y06634*
X04348Y06633*
X0435Y06632*
X04351Y06632*
X04352Y06631*
X04353Y0663*
X04355Y0663*
X04356Y0663*
X04357Y0663*
X04359Y0663*
X0436*
X04362Y0663*
X04363Y0663*
X04364Y0663*
X04366Y0663*
X04367Y06631*
X04368Y06632*
X0437Y06632*
X04371Y06633*
X04372Y06634*
X04373Y06635*
X04374Y06636*
X04375Y06637*
X04376Y06638*
X04376Y06639*
X04377Y0664*
X04378Y06641*
X04378Y06643*
X04379Y06644*
X04379Y06645*
X04379Y06647*
X04379Y06648*
X0438Y0665*
X0508Y0441D02*
D01*
X05079Y04411*
X05079Y04412*
X05079Y04414*
X05079Y04415*
X05078Y04416*
X05078Y04418*
X05077Y04419*
X05076Y0442*
X05076Y04421*
X05075Y04422*
X05074Y04423*
X05073Y04424*
X05072Y04425*
X05071Y04426*
X0507Y04427*
X05068Y04427*
X05067Y04428*
X05066Y04429*
X05064Y04429*
X05063Y04429*
X05062Y04429*
X0506Y04429*
X05059*
X05057Y04429*
X05056Y04429*
X05055Y04429*
X05053Y04429*
X05052Y04428*
X05051Y04427*
X0505Y04427*
X05048Y04426*
X05047Y04425*
X05046Y04424*
X05045Y04423*
X05044Y04422*
X05043Y04421*
X05043Y0442*
X05042Y04419*
X05041Y04418*
X05041Y04416*
X0504Y04415*
X0504Y04414*
X0504Y04412*
X0504Y04411*
X0504Y0441*
X0504Y04408*
X0504Y04407*
X0504Y04405*
X0504Y04404*
X05041Y04403*
X05041Y04401*
X05042Y044*
X05043Y04399*
X05043Y04398*
X05044Y04397*
X05045Y04396*
X05046Y04395*
X05047Y04394*
X05048Y04393*
X0505Y04392*
X05051Y04392*
X05052Y04391*
X05053Y0439*
X05055Y0439*
X05056Y0439*
X05057Y0439*
X05059Y0439*
X0506*
X05062Y0439*
X05063Y0439*
X05064Y0439*
X05066Y0439*
X05067Y04391*
X05068Y04392*
X0507Y04392*
X05071Y04393*
X05072Y04394*
X05073Y04395*
X05074Y04396*
X05075Y04397*
X05076Y04398*
X05076Y04399*
X05077Y044*
X05078Y04401*
X05078Y04403*
X05079Y04404*
X05079Y04405*
X05079Y04407*
X05079Y04408*
X0508Y0441*
Y0431D02*
D01*
X05079Y04311*
X05079Y04312*
X05079Y04314*
X05079Y04315*
X05078Y04316*
X05078Y04318*
X05077Y04319*
X05076Y0432*
X05076Y04321*
X05075Y04322*
X05074Y04323*
X05073Y04324*
X05072Y04325*
X05071Y04326*
X0507Y04327*
X05068Y04327*
X05067Y04328*
X05066Y04329*
X05064Y04329*
X05063Y04329*
X05062Y04329*
X0506Y04329*
X05059*
X05057Y04329*
X05056Y04329*
X05055Y04329*
X05053Y04329*
X05052Y04328*
X05051Y04327*
X0505Y04327*
X05048Y04326*
X05047Y04325*
X05046Y04324*
X05045Y04323*
X05044Y04322*
X05043Y04321*
X05043Y0432*
X05042Y04319*
X05041Y04318*
X05041Y04316*
X0504Y04315*
X0504Y04314*
X0504Y04312*
X0504Y04311*
X0504Y0431*
X0504Y04308*
X0504Y04307*
X0504Y04305*
X0504Y04304*
X05041Y04303*
X05041Y04301*
X05042Y043*
X05043Y04299*
X05043Y04298*
X05044Y04297*
X05045Y04296*
X05046Y04295*
X05047Y04294*
X05048Y04293*
X0505Y04292*
X05051Y04292*
X05052Y04291*
X05053Y0429*
X05055Y0429*
X05056Y0429*
X05057Y0429*
X05059Y0429*
X0506*
X05062Y0429*
X05063Y0429*
X05064Y0429*
X05066Y0429*
X05067Y04291*
X05068Y04292*
X0507Y04292*
X05071Y04293*
X05072Y04294*
X05073Y04295*
X05074Y04296*
X05075Y04297*
X05076Y04298*
X05076Y04299*
X05077Y043*
X05078Y04301*
X05078Y04303*
X05079Y04304*
X05079Y04305*
X05079Y04307*
X05079Y04308*
X0508Y0431*
X0488Y0441D02*
D01*
X04879Y04411*
X04879Y04412*
X04879Y04414*
X04879Y04415*
X04878Y04416*
X04878Y04418*
X04877Y04419*
X04876Y0442*
X04876Y04421*
X04875Y04422*
X04874Y04423*
X04873Y04424*
X04872Y04425*
X04871Y04426*
X0487Y04427*
X04868Y04427*
X04867Y04428*
X04866Y04429*
X04864Y04429*
X04863Y04429*
X04862Y04429*
X0486Y04429*
X04859*
X04857Y04429*
X04856Y04429*
X04855Y04429*
X04853Y04429*
X04852Y04428*
X04851Y04427*
X0485Y04427*
X04848Y04426*
X04847Y04425*
X04846Y04424*
X04845Y04423*
X04844Y04422*
X04843Y04421*
X04843Y0442*
X04842Y04419*
X04841Y04418*
X04841Y04416*
X0484Y04415*
X0484Y04414*
X0484Y04412*
X0484Y04411*
X0484Y0441*
X0484Y04408*
X0484Y04407*
X0484Y04405*
X0484Y04404*
X04841Y04403*
X04841Y04401*
X04842Y044*
X04843Y04399*
X04843Y04398*
X04844Y04397*
X04845Y04396*
X04846Y04395*
X04847Y04394*
X04848Y04393*
X0485Y04392*
X04851Y04392*
X04852Y04391*
X04853Y0439*
X04855Y0439*
X04856Y0439*
X04857Y0439*
X04859Y0439*
X0486*
X04862Y0439*
X04863Y0439*
X04864Y0439*
X04866Y0439*
X04867Y04391*
X04868Y04392*
X0487Y04392*
X04871Y04393*
X04872Y04394*
X04873Y04395*
X04874Y04396*
X04875Y04397*
X04876Y04398*
X04876Y04399*
X04877Y044*
X04878Y04401*
X04878Y04403*
X04879Y04404*
X04879Y04405*
X04879Y04407*
X04879Y04408*
X0488Y0441*
Y0431D02*
D01*
X04879Y04311*
X04879Y04312*
X04879Y04314*
X04879Y04315*
X04878Y04316*
X04878Y04318*
X04877Y04319*
X04876Y0432*
X04876Y04321*
X04875Y04322*
X04874Y04323*
X04873Y04324*
X04872Y04325*
X04871Y04326*
X0487Y04327*
X04868Y04327*
X04867Y04328*
X04866Y04329*
X04864Y04329*
X04863Y04329*
X04862Y04329*
X0486Y04329*
X04859*
X04857Y04329*
X04856Y04329*
X04855Y04329*
X04853Y04329*
X04852Y04328*
X04851Y04327*
X0485Y04327*
X04848Y04326*
X04847Y04325*
X04846Y04324*
X04845Y04323*
X04844Y04322*
X04843Y04321*
X04843Y0432*
X04842Y04319*
X04841Y04318*
X04841Y04316*
X0484Y04315*
X0484Y04314*
X0484Y04312*
X0484Y04311*
X0484Y0431*
X0484Y04308*
X0484Y04307*
X0484Y04305*
X0484Y04304*
X04841Y04303*
X04841Y04301*
X04842Y043*
X04843Y04299*
X04843Y04298*
X04844Y04297*
X04845Y04296*
X04846Y04295*
X04847Y04294*
X04848Y04293*
X0485Y04292*
X04851Y04292*
X04852Y04291*
X04853Y0429*
X04855Y0429*
X04856Y0429*
X04857Y0429*
X04859Y0429*
X0486*
X04862Y0429*
X04863Y0429*
X04864Y0429*
X04866Y0429*
X04867Y04291*
X04868Y04292*
X0487Y04292*
X04871Y04293*
X04872Y04294*
X04873Y04295*
X04874Y04296*
X04875Y04297*
X04876Y04298*
X04876Y04299*
X04877Y043*
X04878Y04301*
X04878Y04303*
X04879Y04304*
X04879Y04305*
X04879Y04307*
X04879Y04308*
X0488Y0431*
X0428Y0441D02*
D01*
X04279Y04411*
X04279Y04412*
X04279Y04414*
X04279Y04415*
X04278Y04416*
X04278Y04418*
X04277Y04419*
X04276Y0442*
X04276Y04421*
X04275Y04422*
X04274Y04423*
X04273Y04424*
X04272Y04425*
X04271Y04426*
X0427Y04427*
X04268Y04427*
X04267Y04428*
X04266Y04429*
X04264Y04429*
X04263Y04429*
X04262Y04429*
X0426Y04429*
X04259*
X04257Y04429*
X04256Y04429*
X04255Y04429*
X04253Y04429*
X04252Y04428*
X04251Y04427*
X0425Y04427*
X04248Y04426*
X04247Y04425*
X04246Y04424*
X04245Y04423*
X04244Y04422*
X04243Y04421*
X04243Y0442*
X04242Y04419*
X04241Y04418*
X04241Y04416*
X0424Y04415*
X0424Y04414*
X0424Y04412*
X0424Y04411*
X0424Y0441*
X0424Y04408*
X0424Y04407*
X0424Y04405*
X0424Y04404*
X04241Y04403*
X04241Y04401*
X04242Y044*
X04243Y04399*
X04243Y04398*
X04244Y04397*
X04245Y04396*
X04246Y04395*
X04247Y04394*
X04248Y04393*
X0425Y04392*
X04251Y04392*
X04252Y04391*
X04253Y0439*
X04255Y0439*
X04256Y0439*
X04257Y0439*
X04259Y0439*
X0426*
X04262Y0439*
X04263Y0439*
X04264Y0439*
X04266Y0439*
X04267Y04391*
X04268Y04392*
X0427Y04392*
X04271Y04393*
X04272Y04394*
X04273Y04395*
X04274Y04396*
X04275Y04397*
X04276Y04398*
X04276Y04399*
X04277Y044*
X04278Y04401*
X04278Y04403*
X04279Y04404*
X04279Y04405*
X04279Y04407*
X04279Y04408*
X0428Y0441*
Y0431D02*
D01*
X04279Y04311*
X04279Y04312*
X04279Y04314*
X04279Y04315*
X04278Y04316*
X04278Y04318*
X04277Y04319*
X04276Y0432*
X04276Y04321*
X04275Y04322*
X04274Y04323*
X04273Y04324*
X04272Y04325*
X04271Y04326*
X0427Y04327*
X04268Y04327*
X04267Y04328*
X04266Y04329*
X04264Y04329*
X04263Y04329*
X04262Y04329*
X0426Y04329*
X04259*
X04257Y04329*
X04256Y04329*
X04255Y04329*
X04253Y04329*
X04252Y04328*
X04251Y04327*
X0425Y04327*
X04248Y04326*
X04247Y04325*
X04246Y04324*
X04245Y04323*
X04244Y04322*
X04243Y04321*
X04243Y0432*
X04242Y04319*
X04241Y04318*
X04241Y04316*
X0424Y04315*
X0424Y04314*
X0424Y04312*
X0424Y04311*
X0424Y0431*
X0424Y04308*
X0424Y04307*
X0424Y04305*
X0424Y04304*
X04241Y04303*
X04241Y04301*
X04242Y043*
X04243Y04299*
X04243Y04298*
X04244Y04297*
X04245Y04296*
X04246Y04295*
X04247Y04294*
X04248Y04293*
X0425Y04292*
X04251Y04292*
X04252Y04291*
X04253Y0429*
X04255Y0429*
X04256Y0429*
X04257Y0429*
X04259Y0429*
X0426*
X04262Y0429*
X04263Y0429*
X04264Y0429*
X04266Y0429*
X04267Y04291*
X04268Y04292*
X0427Y04292*
X04271Y04293*
X04272Y04294*
X04273Y04295*
X04274Y04296*
X04275Y04297*
X04276Y04298*
X04276Y04299*
X04277Y043*
X04278Y04301*
X04278Y04303*
X04279Y04304*
X04279Y04305*
X04279Y04307*
X04279Y04308*
X0428Y0431*
X0448Y0441D02*
D01*
X04479Y04411*
X04479Y04412*
X04479Y04414*
X04479Y04415*
X04478Y04416*
X04478Y04418*
X04477Y04419*
X04476Y0442*
X04476Y04421*
X04475Y04422*
X04474Y04423*
X04473Y04424*
X04472Y04425*
X04471Y04426*
X0447Y04427*
X04468Y04427*
X04467Y04428*
X04466Y04429*
X04464Y04429*
X04463Y04429*
X04462Y04429*
X0446Y04429*
X04459*
X04457Y04429*
X04456Y04429*
X04455Y04429*
X04453Y04429*
X04452Y04428*
X04451Y04427*
X0445Y04427*
X04448Y04426*
X04447Y04425*
X04446Y04424*
X04445Y04423*
X04444Y04422*
X04443Y04421*
X04443Y0442*
X04442Y04419*
X04441Y04418*
X04441Y04416*
X0444Y04415*
X0444Y04414*
X0444Y04412*
X0444Y04411*
X0444Y0441*
X0444Y04408*
X0444Y04407*
X0444Y04405*
X0444Y04404*
X04441Y04403*
X04441Y04401*
X04442Y044*
X04443Y04399*
X04443Y04398*
X04444Y04397*
X04445Y04396*
X04446Y04395*
X04447Y04394*
X04448Y04393*
X0445Y04392*
X04451Y04392*
X04452Y04391*
X04453Y0439*
X04455Y0439*
X04456Y0439*
X04457Y0439*
X04459Y0439*
X0446*
X04462Y0439*
X04463Y0439*
X04464Y0439*
X04466Y0439*
X04467Y04391*
X04468Y04392*
X0447Y04392*
X04471Y04393*
X04472Y04394*
X04473Y04395*
X04474Y04396*
X04475Y04397*
X04476Y04398*
X04476Y04399*
X04477Y044*
X04478Y04401*
X04478Y04403*
X04479Y04404*
X04479Y04405*
X04479Y04407*
X04479Y04408*
X0448Y0441*
Y0431D02*
D01*
X04479Y04311*
X04479Y04312*
X04479Y04314*
X04479Y04315*
X04478Y04316*
X04478Y04318*
X04477Y04319*
X04476Y0432*
X04476Y04321*
X04475Y04322*
X04474Y04323*
X04473Y04324*
X04472Y04325*
X04471Y04326*
X0447Y04327*
X04468Y04327*
X04467Y04328*
X04466Y04329*
X04464Y04329*
X04463Y04329*
X04462Y04329*
X0446Y04329*
X04459*
X04457Y04329*
X04456Y04329*
X04455Y04329*
X04453Y04329*
X04452Y04328*
X04451Y04327*
X0445Y04327*
X04448Y04326*
X04447Y04325*
X04446Y04324*
X04445Y04323*
X04444Y04322*
X04443Y04321*
X04443Y0432*
X04442Y04319*
X04441Y04318*
X04441Y04316*
X0444Y04315*
X0444Y04314*
X0444Y04312*
X0444Y04311*
X0444Y0431*
X0444Y04308*
X0444Y04307*
X0444Y04305*
X0444Y04304*
X04441Y04303*
X04441Y04301*
X04442Y043*
X04443Y04299*
X04443Y04298*
X04444Y04297*
X04445Y04296*
X04446Y04295*
X04447Y04294*
X04448Y04293*
X0445Y04292*
X04451Y04292*
X04452Y04291*
X04453Y0429*
X04455Y0429*
X04456Y0429*
X04457Y0429*
X04459Y0429*
X0446*
X04462Y0429*
X04463Y0429*
X04464Y0429*
X04466Y0429*
X04467Y04291*
X04468Y04292*
X0447Y04292*
X04471Y04293*
X04472Y04294*
X04473Y04295*
X04474Y04296*
X04475Y04297*
X04476Y04298*
X04476Y04299*
X04477Y043*
X04478Y04301*
X04478Y04303*
X04479Y04304*
X04479Y04305*
X04479Y04307*
X04479Y04308*
X0448Y0431*
X0468Y0441D02*
D01*
X04679Y04411*
X04679Y04412*
X04679Y04414*
X04679Y04415*
X04678Y04416*
X04678Y04418*
X04677Y04419*
X04676Y0442*
X04676Y04421*
X04675Y04422*
X04674Y04423*
X04673Y04424*
X04672Y04425*
X04671Y04426*
X0467Y04427*
X04668Y04427*
X04667Y04428*
X04666Y04429*
X04664Y04429*
X04663Y04429*
X04662Y04429*
X0466Y04429*
X04659*
X04657Y04429*
X04656Y04429*
X04655Y04429*
X04653Y04429*
X04652Y04428*
X04651Y04427*
X0465Y04427*
X04648Y04426*
X04647Y04425*
X04646Y04424*
X04645Y04423*
X04644Y04422*
X04643Y04421*
X04643Y0442*
X04642Y04419*
X04641Y04418*
X04641Y04416*
X0464Y04415*
X0464Y04414*
X0464Y04412*
X0464Y04411*
X0464Y0441*
X0464Y04408*
X0464Y04407*
X0464Y04405*
X0464Y04404*
X04641Y04403*
X04641Y04401*
X04642Y044*
X04643Y04399*
X04643Y04398*
X04644Y04397*
X04645Y04396*
X04646Y04395*
X04647Y04394*
X04648Y04393*
X0465Y04392*
X04651Y04392*
X04652Y04391*
X04653Y0439*
X04655Y0439*
X04656Y0439*
X04657Y0439*
X04659Y0439*
X0466*
X04662Y0439*
X04663Y0439*
X04664Y0439*
X04666Y0439*
X04667Y04391*
X04668Y04392*
X0467Y04392*
X04671Y04393*
X04672Y04394*
X04673Y04395*
X04674Y04396*
X04675Y04397*
X04676Y04398*
X04676Y04399*
X04677Y044*
X04678Y04401*
X04678Y04403*
X04679Y04404*
X04679Y04405*
X04679Y04407*
X04679Y04408*
X0468Y0441*
Y0431D02*
D01*
X04679Y04311*
X04679Y04312*
X04679Y04314*
X04679Y04315*
X04678Y04316*
X04678Y04318*
X04677Y04319*
X04676Y0432*
X04676Y04321*
X04675Y04322*
X04674Y04323*
X04673Y04324*
X04672Y04325*
X04671Y04326*
X0467Y04327*
X04668Y04327*
X04667Y04328*
X04666Y04329*
X04664Y04329*
X04663Y04329*
X04662Y04329*
X0466Y04329*
X04659*
X04657Y04329*
X04656Y04329*
X04655Y04329*
X04653Y04329*
X04652Y04328*
X04651Y04327*
X0465Y04327*
X04648Y04326*
X04647Y04325*
X04646Y04324*
X04645Y04323*
X04644Y04322*
X04643Y04321*
X04643Y0432*
X04642Y04319*
X04641Y04318*
X04641Y04316*
X0464Y04315*
X0464Y04314*
X0464Y04312*
X0464Y04311*
X0464Y0431*
X0464Y04308*
X0464Y04307*
X0464Y04305*
X0464Y04304*
X04641Y04303*
X04641Y04301*
X04642Y043*
X04643Y04299*
X04643Y04298*
X04644Y04297*
X04645Y04296*
X04646Y04295*
X04647Y04294*
X04648Y04293*
X0465Y04292*
X04651Y04292*
X04652Y04291*
X04653Y0429*
X04655Y0429*
X04656Y0429*
X04657Y0429*
X04659Y0429*
X0466*
X04662Y0429*
X04663Y0429*
X04664Y0429*
X04666Y0429*
X04667Y04291*
X04668Y04292*
X0467Y04292*
X04671Y04293*
X04672Y04294*
X04673Y04295*
X04674Y04296*
X04675Y04297*
X04676Y04298*
X04676Y04299*
X04677Y043*
X04678Y04301*
X04678Y04303*
X04679Y04304*
X04679Y04305*
X04679Y04307*
X04679Y04308*
X0468Y0431*
X06145Y07059D02*
X06125Y07099D01*
X06165*
X06145Y07059*
X0615Y0368D02*
X0613Y0372D01*
X0617*
X0615Y0368*
X0225D02*
X0223Y0372D01*
X0227*
X0225Y0368*
Y07055D02*
X0223Y07095D01*
X0227*
X0225Y07055*
X0276Y0604D02*
X0277Y0605D01*
X0278*
X0277Y0606*
X0278Y0607*
X0277*
X0276Y0608*
X0275Y0607*
X0274*
X0275Y0606*
X0274Y0605*
X0275*
X0276Y0604*
Y0574D02*
X0277Y0575D01*
X0278*
X0277Y0576*
X0278Y0577*
X0277*
X0276Y0578*
X0275Y0577*
X0274*
X0275Y0576*
X0274Y0575*
X0275*
X0276Y0574*
X0256Y0604D02*
X0257Y0605D01*
X0258*
X0257Y0606*
X0258Y0607*
X0257*
X0256Y0608*
X0255Y0607*
X0254*
X0255Y0606*
X0254Y0605*
X0255*
X0256Y0604*
Y0574D02*
X0257Y0575D01*
X0258*
X0257Y0576*
X0258Y0577*
X0257*
X0256Y0578*
X0255Y0577*
X0254*
X0255Y0576*
X0254Y0575*
X0255*
X0256Y0574*
X0246Y0604D02*
X0247Y0605D01*
X0248*
X0247Y0606*
X0248Y0607*
X0247*
X0246Y0608*
X0245Y0607*
X0244*
X0245Y0606*
X0244Y0605*
X0245*
X0246Y0604*
Y0574D02*
X0247Y0575D01*
X0248*
X0247Y0576*
X0248Y0577*
X0247*
X0246Y0578*
X0245Y0577*
X0244*
X0245Y0576*
X0244Y0575*
X0245*
X0246Y0574*
X0236Y0604D02*
X0237Y0605D01*
X0238*
X0237Y0606*
X0238Y0607*
X0237*
X0236Y0608*
X0235Y0607*
X0234*
X0235Y0606*
X0234Y0605*
X0235*
X0236Y0604*
Y0574D02*
X0237Y0575D01*
X0238*
X0237Y0576*
X0238Y0577*
X0237*
X0236Y0578*
X0235Y0577*
X0234*
X0235Y0576*
X0234Y0575*
X0235*
X0236Y0574*
X0426Y0483D02*
X0427Y0484D01*
X0428*
X0427Y0485*
X0428Y0486*
X0427*
X0426Y0487*
X0425Y0486*
X0424*
X0425Y0485*
X0424Y0484*
X0425*
X0426Y0483*
Y0513D02*
X0427Y0514D01*
X0428*
X0427Y0515*
X0428Y0516*
X0427*
X0426Y0517*
X0425Y0516*
X0424*
X0425Y0515*
X0424Y0514*
X0425*
X0426Y0513*
X0446Y0483D02*
X0447Y0484D01*
X0448*
X0447Y0485*
X0448Y0486*
X0447*
X0446Y0487*
X0445Y0486*
X0444*
X0445Y0485*
X0444Y0484*
X0445*
X0446Y0483*
Y0513D02*
X0447Y0514D01*
X0448*
X0447Y0515*
X0448Y0516*
X0447*
X0446Y0517*
X0445Y0516*
X0444*
X0445Y0515*
X0444Y0514*
X0445*
X0446Y0513*
X0466Y0483D02*
X0467Y0484D01*
X0468*
X0467Y0485*
X0468Y0486*
X0467*
X0466Y0487*
X0465Y0486*
X0464*
X0465Y0485*
X0464Y0484*
X0465*
X0466Y0483*
Y0513D02*
X0467Y0514D01*
X0468*
X0467Y0515*
X0468Y0516*
X0467*
X0466Y0517*
X0465Y0516*
X0464*
X0465Y0515*
X0464Y0514*
X0465*
X0466Y0513*
X0486Y0483D02*
X0487Y0484D01*
X0488*
X0487Y0485*
X0488Y0486*
X0487*
X0486Y0487*
X0485Y0486*
X0484*
X0485Y0485*
X0484Y0484*
X0485*
X0486Y0483*
Y0513D02*
X0487Y0514D01*
X0488*
X0487Y0515*
X0488Y0516*
X0487*
X0486Y0517*
X0485Y0516*
X0484*
X0485Y0515*
X0484Y0514*
X0485*
X0486Y0513*
X0506Y0483D02*
X0507Y0484D01*
X0508*
X0507Y0485*
X0508Y0486*
X0507*
X0506Y0487*
X0505Y0486*
X0504*
X0505Y0485*
X0504Y0484*
X0505*
X0506Y0483*
Y0513D02*
X0507Y0514D01*
X0508*
X0507Y0515*
X0508Y0516*
X0507*
X0506Y0517*
X0505Y0516*
X0504*
X0505Y0515*
X0504Y0514*
X0505*
X0506Y0513*
X0514Y0605D02*
X0515Y0606D01*
X0516*
X0515Y0607*
X0516Y0608*
X0515*
X0514Y0609*
X0513Y0608*
X0512*
X0513Y0607*
X0512Y0606*
X0513*
X0514Y0605*
Y0575D02*
X0515Y0576D01*
X0516*
X0515Y0577*
X0516Y0578*
X0515*
X0514Y0579*
X0513Y0578*
X0512*
X0513Y0577*
X0512Y0576*
X0513*
X0514Y0575*
X0496Y0605D02*
X0497Y0606D01*
X0498*
X0497Y0607*
X0498Y0608*
X0497*
X0496Y0609*
X0495Y0608*
X0494*
X0495Y0607*
X0494Y0606*
X0495*
X0496Y0605*
Y0575D02*
X0497Y0576D01*
X0498*
X0497Y0577*
X0498Y0578*
X0497*
X0496Y0579*
X0495Y0578*
X0494*
X0495Y0577*
X0494Y0576*
X0495*
X0496Y0575*
X0476Y0605D02*
X0477Y0606D01*
X0478*
X0477Y0607*
X0478Y0608*
X0477*
X0476Y0609*
X0475Y0608*
X0474*
X0475Y0607*
X0474Y0606*
X0475*
X0476Y0605*
Y0575D02*
X0477Y0576D01*
X0478*
X0477Y0577*
X0478Y0578*
X0477*
X0476Y0579*
X0475Y0578*
X0474*
X0475Y0577*
X0474Y0576*
X0475*
X0476Y0575*
X0319Y037D02*
X032Y0371D01*
X0321*
X032Y0372*
X0321Y0373*
X032*
X0319Y0374*
X0318Y0373*
X0317*
X0318Y0372*
X0317Y0371*
X0318*
X0319Y037*
X0289D02*
X029Y0371D01*
X0291*
X029Y0372*
X0291Y0373*
X029*
X0289Y0374*
X0288Y0373*
X0287*
X0288Y0372*
X0287Y0371*
X0288*
X0289Y037*
X0456Y0605D02*
X0457Y0606D01*
X0458*
X0457Y0607*
X0458Y0608*
X0457*
X0456Y0609*
X0455Y0608*
X0454*
X0455Y0607*
X0454Y0606*
X0455*
X0456Y0605*
Y0575D02*
X0457Y0576D01*
X0458*
X0457Y0577*
X0458Y0578*
X0457*
X0456Y0579*
X0455Y0578*
X0454*
X0455Y0577*
X0454Y0576*
X0455*
X0456Y0575*
X0436Y0605D02*
X0437Y0606D01*
X0438*
X0437Y0607*
X0438Y0608*
X0437*
X0436Y0609*
X0435Y0608*
X0434*
X0435Y0607*
X0434Y0606*
X0435*
X0436Y0605*
Y0575D02*
X0437Y0576D01*
X0438*
X0437Y0577*
X0438Y0578*
X0437*
X0436Y0579*
X0435Y0578*
X0434*
X0435Y0577*
X0434Y0576*
X0435*
X0436Y0575*
X0464Y05555D02*
Y05595D01*
X0468*
Y05555*
X0464*
Y05455D02*
Y05495D01*
X0468*
Y05455*
X0464*
X0454Y05555D02*
Y05595D01*
X0458*
Y05555*
X0454*
Y05455D02*
Y05495D01*
X0458*
Y05455*
X0454*
X0444Y05555D02*
Y05595D01*
X0448*
Y05555*
X0444*
Y05455D02*
Y05495D01*
X0448*
Y05455*
X0444*
X0434Y05555D02*
Y05595D01*
X0438*
Y05555*
X0434*
Y05455D02*
Y05495D01*
X0438*
Y05455*
X0434*
X0424Y05555D02*
Y05595D01*
X0428*
Y05555*
X0424*
Y05455D02*
Y05495D01*
X0428*
Y05455*
X0424*
X0414Y05555D02*
Y05595D01*
X0418*
Y05555*
X0414*
Y05455D02*
Y05495D01*
X0418*
Y05455*
X0414*
X0404Y05555D02*
Y05595D01*
X0408*
Y05555*
X0404*
Y05455D02*
Y05495D01*
X0408*
Y05455*
X0404*
X0394Y05555D02*
Y05595D01*
X0398*
Y05555*
X0394*
Y05455D02*
Y05495D01*
X0398*
Y05455*
X0394*
X0384Y05555D02*
Y05595D01*
X0388*
Y05555*
X0384*
Y05455D02*
Y05495D01*
X0388*
Y05455*
X0384*
X0374Y05555D02*
Y05595D01*
X0378*
Y05555*
X0374*
Y05455D02*
Y05495D01*
X0378*
Y05455*
X0374*
X0364Y05555D02*
Y05595D01*
X0368*
Y05555*
X0364*
Y05455D02*
Y05495D01*
X0368*
Y05455*
X0364*
X0354Y05555D02*
Y05595D01*
X0358*
Y05555*
X0354*
Y05455D02*
Y05495D01*
X0358*
Y05455*
X0354*
X0344Y05555D02*
Y05595D01*
X0348*
Y05555*
X0344*
Y05455D02*
Y05495D01*
X0348*
Y05455*
X0344*
X0334Y05555D02*
Y05595D01*
X0338*
Y05555*
X0334*
Y05455D02*
Y05495D01*
X0338*
Y05455*
X0334*
X0324Y05555D02*
Y05595D01*
X0328*
Y05555*
X0324*
Y05455D02*
Y05495D01*
X0328*
Y05455*
X0324*
X0314Y05555D02*
Y05595D01*
X0318*
Y05555*
X0314*
Y05455D02*
Y05495D01*
X0318*
Y05455*
X0314*
X0304Y05555D02*
Y05595D01*
X0308*
Y05555*
X0304*
Y05455D02*
Y05495D01*
X0308*
Y05455*
X0304*
X0294Y05555D02*
Y05595D01*
X0298*
Y05555*
X0294*
Y05455D02*
Y05495D01*
X0298*
Y05455*
X0294*
X0284Y05555D02*
Y05595D01*
X0288*
Y05555*
X0284*
Y05455D02*
Y05495D01*
X0288*
Y05455*
X0284*
X0274Y05555D02*
Y05595D01*
X0278*
Y05555*
X0274*
Y05455D02*
Y05495D01*
X0278*
Y05455*
X0274*
X0264Y05555D02*
Y05595D01*
X0268*
Y05555*
X0264*
Y05455D02*
Y05495D01*
X0268*
Y05455*
X0264*
X0254Y05555D02*
Y05595D01*
X0258*
Y05555*
X0254*
Y05455D02*
Y05495D01*
X0258*
Y05455*
X0254*
X0244Y05555D02*
Y05595D01*
X0248*
Y05555*
X0244*
Y05455D02*
Y05495D01*
X0248*
Y05455*
X0244*
X0234Y05555D02*
Y05595D01*
X0238*
Y05555*
X0234*
Y05455D02*
Y05495D01*
X0238*
Y05455*
X0234*
X0224Y05555D02*
Y05595D01*
X0228*
Y05555*
X0224*
Y05455D02*
Y05495D01*
X0228*
Y05455*
X0224*
X0514Y05555D02*
Y05595D01*
X0518*
Y05555*
X0514*
Y05455D02*
Y05495D01*
X0518*
Y05455*
X0514*
X0504Y05555D02*
Y05595D01*
X0508*
Y05555*
X0504*
Y05455D02*
Y05495D01*
X0508*
Y05455*
X0504*
X0494Y05555D02*
Y05595D01*
X0498*
Y05555*
X0494*
Y05455D02*
Y05495D01*
X0498*
Y05455*
X0494*
X0484Y05555D02*
Y05595D01*
X0488*
Y05555*
X0484*
Y05455D02*
Y05495D01*
X0488*
Y05455*
X0484*
X0474Y05555D02*
Y05595D01*
X0478*
Y05555*
X0474*
Y05455D02*
Y05495D01*
X0478*
Y05455*
X0474*
X0242Y0646D02*
Y065D01*
X0246*
Y0646*
X0242*
X0252D02*
Y065D01*
X0256*
Y0646*
X0252*
X0262D02*
Y065D01*
X0266*
Y0646*
X0262*
X0272D02*
Y065D01*
X0276*
Y0646*
X0272*
X0282D02*
Y065D01*
X0286*
Y0646*
X0282*
X0292D02*
Y065D01*
X0296*
Y0646*
X0292*
X0302D02*
Y065D01*
X0306*
Y0646*
X0302*
X0312D02*
Y065D01*
X0316*
Y0646*
X0312*
X0322D02*
Y065D01*
X0326*
Y0646*
X0322*
X0332D02*
Y065D01*
X0336*
Y0646*
X0332*
X0342D02*
Y065D01*
X0346*
Y0646*
X0342*
X0352D02*
Y065D01*
X0356*
Y0646*
X0352*
X0362D02*
Y065D01*
X0366*
Y0646*
X0362*
X0372D02*
Y065D01*
X0376*
Y0646*
X0372*
X0242Y0676D02*
Y068D01*
X0246*
Y0676*
X0242*
X0252D02*
Y068D01*
X0256*
Y0676*
X0252*
X0262D02*
Y068D01*
X0266*
Y0676*
X0262*
X0272D02*
Y068D01*
X0276*
Y0676*
X0272*
X0282D02*
Y068D01*
X0286*
Y0676*
X0282*
X0292D02*
Y068D01*
X0296*
Y0676*
X0292*
X0302D02*
Y068D01*
X0306*
Y0676*
X0302*
X0312D02*
Y068D01*
X0316*
Y0676*
X0312*
X0322D02*
Y068D01*
X0326*
Y0676*
X0322*
X0332D02*
Y068D01*
X0336*
Y0676*
X0332*
X0342D02*
Y068D01*
X0346*
Y0676*
X0342*
X0352D02*
Y068D01*
X0356*
Y0676*
X0352*
X0362D02*
Y068D01*
X0366*
Y0676*
X0362*
X0372D02*
Y068D01*
X0376*
Y0676*
X0372*
X0303Y0702D02*
X0304Y0703D01*
X0305*
X0304Y0704*
X0305Y0705*
X0304*
X0303Y0706*
X0302Y0705*
X0301*
X0302Y0704*
X0301Y0703*
X0302*
X0303Y0702*
X0333D02*
X0334Y0703D01*
X0335*
X0334Y0704*
X0335Y0705*
X0334*
X0333Y0706*
X0332Y0705*
X0331*
X0332Y0704*
X0331Y0703*
X0332*
X0333Y0702*
X0226Y04805D02*
X0227Y04815D01*
X0228*
X0227Y04825*
X0228Y04835*
X0227*
X0226Y04845*
X0225Y04835*
X0224*
X0225Y04825*
X0224Y04815*
X0225*
X0226Y04805*
Y05105D02*
X0227Y05115D01*
X0228*
X0227Y05125*
X0228Y05135*
X0227*
X0226Y05145*
X0225Y05135*
X0224*
X0225Y05125*
X0224Y05115*
X0225*
X0226Y05105*
X0236Y04805D02*
X0237Y04815D01*
X0238*
X0237Y04825*
X0238Y04835*
X0237*
X0236Y04845*
X0235Y04835*
X0234*
X0235Y04825*
X0234Y04815*
X0235*
X0236Y04805*
Y05105D02*
X0237Y05115D01*
X0238*
X0237Y05125*
X0238Y05135*
X0237*
X0236Y05145*
X0235Y05135*
X0234*
X0235Y05125*
X0234Y05115*
X0235*
X0236Y05105*
X0246Y04805D02*
X0247Y04815D01*
X0248*
X0247Y04825*
X0248Y04835*
X0247*
X0246Y04845*
X0245Y04835*
X0244*
X0245Y04825*
X0244Y04815*
X0245*
X0246Y04805*
Y05105D02*
X0247Y05115D01*
X0248*
X0247Y05125*
X0248Y05135*
X0247*
X0246Y05145*
X0245Y05135*
X0244*
X0245Y05125*
X0244Y05115*
X0245*
X0246Y05105*
X0266Y04805D02*
X0267Y04815D01*
X0268*
X0267Y04825*
X0268Y04835*
X0267*
X0266Y04845*
X0265Y04835*
X0264*
X0265Y04825*
X0264Y04815*
X0265*
X0266Y04805*
Y05105D02*
X0267Y05115D01*
X0268*
X0267Y05125*
X0268Y05135*
X0267*
X0266Y05145*
X0265Y05135*
X0264*
X0265Y05125*
X0264Y05115*
X0265*
X0266Y05105*
X0276Y04805D02*
X0277Y04815D01*
X0278*
X0277Y04825*
X0278Y04835*
X0277*
X0276Y04845*
X0275Y04835*
X0274*
X0275Y04825*
X0274Y04815*
X0275*
X0276Y04805*
Y05105D02*
X0277Y05115D01*
X0278*
X0277Y05125*
X0278Y05135*
X0277*
X0276Y05145*
X0275Y05135*
X0274*
X0275Y05125*
X0274Y05115*
X0275*
X0276Y05105*
X0286Y04805D02*
X0287Y04815D01*
X0288*
X0287Y04825*
X0288Y04835*
X0287*
X0286Y04845*
X0285Y04835*
X0284*
X0285Y04825*
X0284Y04815*
X0285*
X0286Y04805*
Y05105D02*
X0287Y05115D01*
X0288*
X0287Y05125*
X0288Y05135*
X0287*
X0286Y05145*
X0285Y05135*
X0284*
X0285Y05125*
X0284Y05115*
X0285*
X0286Y05105*
X0306Y04805D02*
X0307Y04815D01*
X0308*
X0307Y04825*
X0308Y04835*
X0307*
X0306Y04845*
X0305Y04835*
X0304*
X0305Y04825*
X0304Y04815*
X0305*
X0306Y04805*
Y05105D02*
X0307Y05115D01*
X0308*
X0307Y05125*
X0308Y05135*
X0307*
X0306Y05145*
X0305Y05135*
X0304*
X0305Y05125*
X0304Y05115*
X0305*
X0306Y05105*
X0316Y04805D02*
X0317Y04815D01*
X0318*
X0317Y04825*
X0318Y04835*
X0317*
X0316Y04845*
X0315Y04835*
X0314*
X0315Y04825*
X0314Y04815*
X0315*
X0316Y04805*
Y05105D02*
X0317Y05115D01*
X0318*
X0317Y05125*
X0318Y05135*
X0317*
X0316Y05145*
X0315Y05135*
X0314*
X0315Y05125*
X0314Y05115*
X0315*
X0316Y05105*
X0326Y04805D02*
X0327Y04815D01*
X0328*
X0327Y04825*
X0328Y04835*
X0327*
X0326Y04845*
X0325Y04835*
X0324*
X0325Y04825*
X0324Y04815*
X0325*
X0326Y04805*
Y05105D02*
X0327Y05115D01*
X0328*
X0327Y05125*
X0328Y05135*
X0327*
X0326Y05145*
X0325Y05135*
X0324*
X0325Y05125*
X0324Y05115*
X0325*
X0326Y05105*
X0346Y04825D02*
X0347Y04835D01*
X0348*
X0347Y04845*
X0348Y04855*
X0347*
X0346Y04865*
X0345Y04855*
X0344*
X0345Y04845*
X0344Y04835*
X0345*
X0346Y04825*
Y05125D02*
X0347Y05135D01*
X0348*
X0347Y05145*
X0348Y05155*
X0347*
X0346Y05165*
X0345Y05155*
X0344*
X0345Y05145*
X0344Y05135*
X0345*
X0346Y05125*
X0356Y04825D02*
X0357Y04835D01*
X0358*
X0357Y04845*
X0358Y04855*
X0357*
X0356Y04865*
X0355Y04855*
X0354*
X0355Y04845*
X0354Y04835*
X0355*
X0356Y04825*
Y05125D02*
X0357Y05135D01*
X0358*
X0357Y05145*
X0358Y05155*
X0357*
X0356Y05165*
X0355Y05155*
X0354*
X0355Y05145*
X0354Y05135*
X0355*
X0356Y05125*
X0366Y04825D02*
X0367Y04835D01*
X0368*
X0367Y04845*
X0368Y04855*
X0367*
X0366Y04865*
X0365Y04855*
X0364*
X0365Y04845*
X0364Y04835*
X0365*
X0366Y04825*
Y05125D02*
X0367Y05135D01*
X0368*
X0367Y05145*
X0368Y05155*
X0367*
X0366Y05165*
X0365Y05155*
X0364*
X0365Y05145*
X0364Y05135*
X0365*
X0366Y05125*
X03865Y0482D02*
X03875Y0483D01*
X03885*
X03875Y0484*
X03885Y0485*
X03875*
X03865Y0486*
X03855Y0485*
X03845*
X03855Y0484*
X03845Y0483*
X03855*
X03865Y0482*
Y0512D02*
X03875Y0513D01*
X03885*
X03875Y0514*
X03885Y0515*
X03875*
X03865Y0516*
X03855Y0515*
X03845*
X03855Y0514*
X03845Y0513*
X03855*
X03865Y0512*
X03965Y0482D02*
X03975Y0483D01*
X03985*
X03975Y0484*
X03985Y0485*
X03975*
X03965Y0486*
X03955Y0485*
X03945*
X03955Y0484*
X03945Y0483*
X03955*
X03965Y0482*
Y0512D02*
X03975Y0513D01*
X03985*
X03975Y0514*
X03985Y0515*
X03975*
X03965Y0516*
X03955Y0515*
X03945*
X03955Y0514*
X03945Y0513*
X03955*
X03965Y0512*
X0406Y04825D02*
X0407Y04835D01*
X0408*
X0407Y04845*
X0408Y04855*
X0407*
X0406Y04865*
X0405Y04855*
X0404*
X0405Y04845*
X0404Y04835*
X0405*
X0406Y04825*
Y05125D02*
X0407Y05135D01*
X0408*
X0407Y05145*
X0408Y05155*
X0407*
X0406Y05165*
X0405Y05155*
X0404*
X0405Y05145*
X0404Y05135*
X0405*
X0406Y05125*
X0416Y0604D02*
X0417Y0605D01*
X0418*
X0417Y0606*
X0418Y0607*
X0417*
X0416Y0608*
X0415Y0607*
X0414*
X0415Y0606*
X0414Y0605*
X0415*
X0416Y0604*
Y0574D02*
X0417Y0575D01*
X0418*
X0417Y0576*
X0418Y0577*
X0417*
X0416Y0578*
X0415Y0577*
X0414*
X0415Y0576*
X0414Y0575*
X0415*
X0416Y0574*
X0286Y0604D02*
X0287Y0605D01*
X0288*
X0287Y0606*
X0288Y0607*
X0287*
X0286Y0608*
X0285Y0607*
X0284*
X0285Y0606*
X0284Y0605*
X0285*
X0286Y0604*
Y0574D02*
X0287Y0575D01*
X0288*
X0287Y0576*
X0288Y0577*
X0287*
X0286Y0578*
X0285Y0577*
X0284*
X0285Y0576*
X0284Y0575*
X0285*
X0286Y0574*
X0296Y0604D02*
X0297Y0605D01*
X0298*
X0297Y0606*
X0298Y0607*
X0297*
X0296Y0608*
X0295Y0607*
X0294*
X0295Y0606*
X0294Y0605*
X0295*
X0296Y0604*
Y0574D02*
X0297Y0575D01*
X0298*
X0297Y0576*
X0298Y0577*
X0297*
X0296Y0578*
X0295Y0577*
X0294*
X0295Y0576*
X0294Y0575*
X0295*
X0296Y0574*
X0316Y0604D02*
X0317Y0605D01*
X0318*
X0317Y0606*
X0318Y0607*
X0317*
X0316Y0608*
X0315Y0607*
X0314*
X0315Y0606*
X0314Y0605*
X0315*
X0316Y0604*
Y0574D02*
X0317Y0575D01*
X0318*
X0317Y0576*
X0318Y0577*
X0317*
X0316Y0578*
X0315Y0577*
X0314*
X0315Y0576*
X0314Y0575*
X0315*
X0316Y0574*
X0326Y0604D02*
X0327Y0605D01*
X0328*
X0327Y0606*
X0328Y0607*
X0327*
X0326Y0608*
X0325Y0607*
X0324*
X0325Y0606*
X0324Y0605*
X0325*
X0326Y0604*
Y0574D02*
X0327Y0575D01*
X0328*
X0327Y0576*
X0328Y0577*
X0327*
X0326Y0578*
X0325Y0577*
X0324*
X0325Y0576*
X0324Y0575*
X0325*
X0326Y0574*
X0336Y0604D02*
X0337Y0605D01*
X0338*
X0337Y0606*
X0338Y0607*
X0337*
X0336Y0608*
X0335Y0607*
X0334*
X0335Y0606*
X0334Y0605*
X0335*
X0336Y0604*
Y0574D02*
X0337Y0575D01*
X0338*
X0337Y0576*
X0338Y0577*
X0337*
X0336Y0578*
X0335Y0577*
X0334*
X0335Y0576*
X0334Y0575*
X0335*
X0336Y0574*
X0356Y0604D02*
X0357Y0605D01*
X0358*
X0357Y0606*
X0358Y0607*
X0357*
X0356Y0608*
X0355Y0607*
X0354*
X0355Y0606*
X0354Y0605*
X0355*
X0356Y0604*
Y0574D02*
X0357Y0575D01*
X0358*
X0357Y0576*
X0358Y0577*
X0357*
X0356Y0578*
X0355Y0577*
X0354*
X0355Y0576*
X0354Y0575*
X0355*
X0356Y0574*
X0366Y0604D02*
X0367Y0605D01*
X0368*
X0367Y0606*
X0368Y0607*
X0367*
X0366Y0608*
X0365Y0607*
X0364*
X0365Y0606*
X0364Y0605*
X0365*
X0366Y0604*
Y0574D02*
X0367Y0575D01*
X0368*
X0367Y0576*
X0368Y0577*
X0367*
X0366Y0578*
X0365Y0577*
X0364*
X0365Y0576*
X0364Y0575*
X0365*
X0366Y0574*
X0376Y0604D02*
X0377Y0605D01*
X0378*
X0377Y0606*
X0378Y0607*
X0377*
X0376Y0608*
X0375Y0607*
X0374*
X0375Y0606*
X0374Y0605*
X0375*
X0376Y0604*
Y0574D02*
X0377Y0575D01*
X0378*
X0377Y0576*
X0378Y0577*
X0377*
X0376Y0578*
X0375Y0577*
X0374*
X0375Y0576*
X0374Y0575*
X0375*
X0376Y0574*
X0396Y0604D02*
X0397Y0605D01*
X0398*
X0397Y0606*
X0398Y0607*
X0397*
X0396Y0608*
X0395Y0607*
X0394*
X0395Y0606*
X0394Y0605*
X0395*
X0396Y0604*
Y0574D02*
X0397Y0575D01*
X0398*
X0397Y0576*
X0398Y0577*
X0397*
X0396Y0578*
X0395Y0577*
X0394*
X0395Y0576*
X0394Y0575*
X0395*
X0396Y0574*
X0406Y0604D02*
X0407Y0605D01*
X0408*
X0407Y0606*
X0408Y0607*
X0407*
X0406Y0608*
X0405Y0607*
X0404*
X0405Y0606*
X0404Y0605*
X0405*
X0406Y0604*
Y0574D02*
X0407Y0575D01*
X0408*
X0407Y0576*
X0408Y0577*
X0407*
X0406Y0578*
X0405Y0577*
X0404*
X0405Y0576*
X0404Y0575*
X0405*
X0406Y0574*
X0598Y04013D02*
X0599Y04033D01*
X0598Y04053*
X06Y04043*
X0602Y04053*
X0601Y04033*
X0602Y04013*
X06Y04023*
X0598Y04013*
X04135Y06975D02*
Y06965D01*
X04155*
Y06975*
X04165*
Y06995*
X04155*
Y07005*
X04135*
Y06995*
X04125*
Y06975*
X04135*
X0424Y0576D02*
Y0575D01*
X0426*
Y0576*
X0427*
Y0578*
X0426*
Y0579*
X0424*
Y0578*
X0423*
Y0576*
X0424*
X0287Y06975D02*
Y06965D01*
X0289*
Y06975*
X029*
Y06995*
X0289*
Y07005*
X0287*
Y06995*
X0286*
Y06975*
X0287*
X0623Y05735D02*
Y05725D01*
X0625*
Y05735*
X0626*
Y05755*
X0625*
Y05765*
X0623*
Y05755*
X0622*
Y05735*
X0623*
X06185Y0581D02*
Y058D01*
X06205*
Y0581*
X06215*
Y0583*
X06205*
Y0584*
X06185*
Y0583*
X06175*
Y0581*
X06185*
X0623Y0609D02*
Y0608D01*
X0625*
Y0609*
X0626*
Y0611*
X0625*
Y0612*
X0623*
Y0611*
X0622*
Y0609*
X0623*
X06185Y0601D02*
Y06D01*
X06205*
Y0601*
X06215*
Y0603*
X06205*
Y0604*
X06185*
Y0603*
X06175*
Y0601*
X06185*
X06166Y04144D02*
Y04134D01*
X06186*
Y04144*
X06196*
Y04164*
X06186*
Y04174*
X06166*
Y04164*
X06156*
Y04144*
X06166*
X05658Y03955D02*
X05668Y03975D01*
X05658Y03995*
X05678Y03985*
X05698Y03995*
X05688Y03975*
X05698Y03955*
X05678Y03965*
X05658Y03955*
X0576Y06395D02*
X0577Y06415D01*
X0576Y06435*
X0578Y06425*
X058Y06435*
X0579Y06415*
X058Y06395*
X0578Y06405*
X0576Y06395*
X0554Y06785D02*
X0555Y06805D01*
X0554Y06825*
X0556Y06815*
X0558Y06825*
X0557Y06805*
X0558Y06785*
X0556Y06795*
X0554Y06785*
X05583Y06477D02*
X05593Y06497D01*
X05583Y06517*
X05603Y06507*
X05623Y06517*
X05613Y06497*
X05623Y06477*
X05603Y06487*
X05583Y06477*
X04169Y04572D02*
X04179Y04592D01*
X04169Y04612*
X04189Y04602*
X04209Y04612*
X04199Y04592*
X04209Y04572*
X04189Y04582*
X04169Y04572*
X0616Y0452D02*
X0617Y0454D01*
X0616Y0456*
X0618Y0455*
X062Y0456*
X0619Y0454*
X062Y0452*
X0618Y0453*
X0616Y0452*
X0532D02*
X0533Y0454D01*
X0532Y0456*
X0534Y0455*
X0536Y0456*
X0535Y0454*
X0536Y0452*
X0534Y0453*
X0532Y0452*
X0525Y06834D02*
X0526Y06854D01*
X0525Y06874*
X0527Y06864*
X0529Y06874*
X0528Y06854*
X0529Y06834*
X0527Y06844*
X0525Y06834*
X05553Y04122D02*
X05563Y04142D01*
X05553Y04162*
X05573Y04152*
X05593Y04162*
X05583Y04142*
X05593Y04122*
X05573Y04132*
X05553Y04122*
M02*